<svg width="912" height="1550" viewBox="0 0 912 1550" fill="none" xmlns="http://www.w3.org/2000/svg">
<g opacity="0.28">
<mask id="mask0_912_511" style="mask-type:luminance" maskUnits="userSpaceOnUse" x="0" y="0" width="912" height="1550">
<path d="M912 1549.68L912 0.0800781L0.000183105 0.0800338L0.000122166 1549.68L912 1549.68Z" fill="white"/>
</mask>
<g mask="url(#mask0_912_511)">
<path opacity="0.2" d="M255.178 175.702L159.053 129.627L79.3443 201.115L255.178 175.702ZM329.05 33.7585L297.677 -126.573L259.92 24.4609L329.05 33.7585ZM358.963 229.421L255.178 175.702L278.16 324.05L358.963 229.421ZM182.218 353.183L228.547 400.084L313.911 381.076L182.218 353.183ZM381.763 352.77L313.728 381.076L430.464 545.953L381.763 352.77ZM141.907 1357.53L187.325 1410.63L359.146 1293.27L141.907 1357.53ZM414.96 1432.53L367.354 1591.42L537.168 1520.75L414.96 1432.53ZM458.736 751.947L413.683 845.129L522.394 972.61L458.736 751.947ZM165.984 1181.91L25.1715 1187.69L144.096 1270.75L165.984 1181.91ZM189.879 526.118L164.707 480.87L58.5507 410.208L189.879 526.118ZM353.856 921.783L373.191 1125.09L481.901 1107.53L522.394 972.816L438.855 890.378L413.683 845.129L248.429 737.277L227.271 657.938L234.384 603.392L395.808 556.077L381.946 671.161L389.971 742.649L248.429 737.484L381.763 671.161L227.088 658.144L195.351 674.26L192.979 761.038L231.648 833.972L158.323 771.368L184.042 992.858L75.3315 925.915L158.323 771.368L175.651 694.921L118.378 593.681L195.351 674.467L234.202 603.805L187.325 602.978L189.879 526.531L234.202 603.805L298.589 509.176L189.879 526.738L118.56 593.681L187.325 603.185L195.351 674.673L175.651 695.128L192.979 761.451L286.186 785.418L231.466 834.179L353.856 921.783L286.368 784.798L413.683 845.336L353.856 921.783L438.855 890.378L413.683 845.129L389.971 742.442L458.736 751.947L401.463 650.706L430.464 545.746L342.365 502.771L298.589 508.556L58.7331 410.208L118.56 593.061L189.879 526.118L228.547 400.084L298.589 508.556L395.808 555.87L342.365 502.771L228.547 400.084L164.89 480.87L182.4 353.183L58.9155 410.208L79.3443 200.909L159.053 129.42L257.184 88.3044L259.92 24.4609L310.81 116.197L257.184 88.3044L255.178 175.495L297.677 -126.573L461.837 -40.6223L329.05 33.5519L341.818 136.652L496.858 93.883L461.837 -40.6223L341.818 136.652L329.05 33.5519L310.81 115.991L358.963 229.215L341.818 136.652L310.81 115.991L254.995 175.495L184.589 291.819L182.035 352.976L79.3443 200.909L184.771 292.025L277.978 324.05L313.728 381.076L342.365 502.977L430.464 545.953L395.808 556.077L401.645 650.706L381.946 671.161L234.384 603.392L195.533 674.053L248.611 737.484L193.344 760.831L158.688 770.955L232.013 833.559L184.407 992.444L166.349 1181.91L75.6963 925.502L142.272 1357.53L3.6483 1415.8L-17.5101 1336.46L-55.4493 1289.14L-122.937 1152.16L25.7187 1187.9L75.8787 925.502L-122.937 1152.16L25.7187 1187.9L-55.2669 1289.14L144.096 1270.75L301.69 1192.03L141.725 1357.53L-18.0573 1336.46L144.096 1270.75L141.725 1357.53L100.867 1440.59L151.757 1509.18L358.963 1293.48L378.663 1273.03L431.741 1336.46L376.474 1359.8L469.68 1383.77L414.96 1432.53L376.291 1359.6L378.663 1272.82L370.637 1201.33L373.191 1124.88L165.984 1181.91L301.69 1192.03L358.963 1293.27L378.663 1272.82L417.514 1202.16L370.637 1201.33L301.872 1191.83L378.845 1272.61L410.583 1256.5L417.696 1201.95L373.373 1124.68L184.224 992.031L353.856 921.783L481.901 1107.53L417.514 1202.16L410.4 1256.7L431.559 1336.04L469.498 1383.36L536.986 1520.34L376.109 1359.39L341.453 1369.51L151.757 1508.77L134.976 1673.44L258.461 1524.06L341.453 1369.51L358.781 1293.07L376.109 1359.39L414.778 1432.32L341.453 1369.72L367.354 1591.42L258.643 1524.47L151.939 1509.18L187.325 1410.84L101.05 1440.8L151.939 1509.39L65.1171 1565.59L101.05 1440.59L3.28348 1415.8L65.1171 1565.18L135.159 1673.65L151.939 1508.98L101.05 1440.59L141.907 1357.53L144.279 1270.75L166.167 1181.91L184.224 992.444L353.856 921.783Z" fill="url(#paint0_radial_912_511)"/>
</g>
<mask id="mask1_912_511" style="mask-type:luminance" maskUnits="userSpaceOnUse" x="0" y="0" width="912" height="1550">
<path d="M912 1549.68L912 0.0800781L0.000183105 0.0800338L0.000122166 1549.68L912 1549.68Z" fill="white"/>
</mask>
<g mask="url(#mask1_912_511)">
<path opacity="0.5" d="M134.794 1674.68C134.976 1674.68 135.159 1674.68 135.341 1674.68C135.524 1674.68 135.524 1674.68 135.706 1674.47L258.644 1525.71L366.807 1592.45C366.807 1592.45 366.807 1592.45 366.989 1592.45L367.171 1592.45L367.354 1592.45C367.354 1592.45 367.354 1592.45 367.536 1592.45L537.351 1521.79C537.533 1521.58 537.716 1521.37 537.716 1520.96C537.716 1520.75 537.716 1520.75 537.716 1520.55L470.228 1383.56L432.471 1336.46L411.312 1257.53L418.244 1203.4L482.448 1108.97C482.631 1108.77 482.631 1108.56 482.631 1108.35C482.631 1108.35 482.631 1108.35 482.631 1108.15C482.631 1107.94 482.631 1107.73 482.448 1107.73L355.316 923.022L438.49 892.237L521.664 974.262C521.664 974.262 521.847 974.262 521.847 974.469C521.847 974.469 521.847 974.469 522.029 974.469L522.212 974.469C522.212 974.469 522.212 974.469 522.394 974.469L522.576 974.469C522.576 974.469 522.576 974.469 522.759 974.469L522.941 974.262C522.941 974.262 523.124 974.056 523.124 973.849C523.124 973.849 523.124 973.849 523.124 973.642L523.124 973.436L523.124 973.229C523.124 973.229 523.124 973.229 523.124 973.023L459.648 751.74L459.648 751.533L402.557 650.706L431.376 546.159C431.376 546.159 431.376 546.159 431.376 545.953C431.376 545.953 431.376 545.953 431.376 545.746L382.676 352.563C382.676 352.356 382.493 352.149 382.128 351.943C381.946 351.736 381.581 351.736 381.399 351.943L313.911 379.836L279.072 324.257L359.511 230.248L359.693 230.041C359.693 229.834 359.693 229.834 359.693 229.628L342.73 137.891L497.04 95.3291L497.223 95.3291L497.405 95.3291C497.405 95.3291 497.405 95.1225 497.588 95.1225C497.588 95.1225 497.588 95.1225 497.77 94.9158L497.77 94.7092C497.77 94.7092 497.77 94.7092 497.77 94.5026L497.77 94.296L497.77 94.0894L462.749 -40.8291L298.589 -126.78C298.407 -126.78 298.407 -126.78 298.224 -126.78C298.042 -126.78 298.042 -126.78 297.86 -126.78C297.86 -126.78 297.677 -126.78 297.677 -126.574L297.495 -126.367L259.008 24.2541L256.272 87.4777L158.506 128.387C158.506 128.387 158.506 128.387 158.324 128.387L158.141 128.387L78.4324 199.875C78.4324 199.875 78.4324 199.875 78.4324 200.082C78.4324 200.082 78.4324 200.082 78.25 200.289L78.25 200.495C78.25 200.495 78.25 200.495 78.25 200.702L57.6388 410.001C57.6388 410.001 57.6388 410.001 57.6388 410.208C57.6388 410.414 57.6388 410.414 57.6388 410.621L117.466 593.474C117.466 593.474 117.466 593.474 117.466 593.68L174.557 694.508L157.412 770.335L74.602 924.468L-124.032 1151.33C-124.032 1151.33 -124.032 1151.33 -124.032 1151.54L-124.032 1151.74L-124.032 1151.95C-124.032 1152.16 -124.032 1152.16 -124.032 1152.36L-56.5436 1289.35C-56.5436 1289.35 -56.5437 1289.55 -56.3613 1289.55L-18.6044 1336.66L2.55391 1415.79C2.55391 1416 2.55398 1416 2.73638 1416.21L2.91873 1416.41C2.91873 1416.41 2.9188 1416.41 3.1012 1416.41L99.9555 1441L64.2052 1564.56L64.2052 1564.76C64.2052 1564.76 64.2052 1564.76 64.2052 1564.97C64.2052 1565.18 64.2051 1565.38 64.3875 1565.38L134.429 1673.86C134.612 1674.47 134.612 1674.68 134.794 1674.68ZM6.56673 1415.59L139.901 1359.39L100.685 1439.35L6.56673 1415.59ZM161.424 129.42L256.272 89.7505L254.266 174.049L161.424 129.42ZM495.764 93.2629L344.189 134.999L461.472 -38.1432L495.764 93.2629ZM439.402 889.757L419.156 853.187L507.255 956.493L439.402 889.757ZM409.671 1256.29L381.034 1270.75L416.055 1207.12L409.671 1256.29ZM183.86 292.438L181.488 350.29L84.2692 206.28L183.86 292.438ZM164.16 481.696L186.413 521.572L70.2244 419.092L164.16 481.696ZM60.7396 410.414L181.124 354.835L164.16 479.217L60.7396 410.414ZM165.984 481.076L226.176 404.629L189.696 523.845L165.984 481.076ZM389.242 743.475L412.407 843.063L252.077 738.516L389.242 743.475ZM188.055 1411.46L351.85 1299.68L154.311 1505.26L188.055 1411.46ZM392.89 555.664L236.573 601.532L298.772 509.795L392.89 555.664ZM228.183 657.111L234.932 604.838L375.927 669.714L228.183 657.111ZM378.116 671.78L248.976 736.037L228.365 659.177L378.116 671.78ZM302.055 509.176L342 503.804L390.701 552.358L302.055 509.176ZM298.954 507.523L233.108 405.662L339.994 502.151L298.954 507.523ZM296.948 507.936L191.156 524.878L228.73 402.357L296.948 507.936ZM296.4 510.002L234.202 601.532L191.338 526.944L296.4 510.002ZM232.56 602.358L188.237 601.738L190.608 529.63L232.56 602.358ZM226.359 657.317L197.722 671.78L232.743 608.143L226.359 657.317ZM226.541 659.384L246.423 733.558L196.992 674.466L226.541 659.384ZM284.362 785.418L232.013 832.112L194.986 762.277L284.362 785.418ZM196.263 760.417L248.064 738.723L283.632 783.145L196.263 760.417ZM342.912 1368.48L359.146 1297.2L375.38 1358.98L342.912 1368.48ZM360.058 1293.69L377.751 1275.3L375.744 1353.19L360.058 1293.69ZM359.146 1291.83L306.432 1198.44L377.386 1273.03L359.146 1291.83ZM304.426 1193.48L369.725 1202.57L377.386 1270.34L304.426 1193.48ZM304.061 1191.41L372.279 1127.36L369.908 1200.5L304.061 1191.41ZM172.004 1181.29L369.543 1127.16L301.508 1191L172.004 1181.29ZM167.079 1180.46L184.772 994.097L370.82 1124.47L167.079 1180.46ZM357.504 1292.65L145.191 1355.46L301.508 1193.69L357.504 1292.65ZM353.127 1296.17L187.325 1409.39L143.549 1358.15L353.127 1296.17ZM357.322 1296.58L340.724 1369.31L160.33 1501.54L357.322 1296.58ZM375.927 1360.84L411.677 1428.4L343.642 1370.34L375.927 1360.84ZM378.298 1361.25L467.674 1384.18L415.325 1430.88L378.298 1361.25ZM379.575 1275.5L430.1 1336.04L377.386 1358.36L379.575 1275.5ZM371.549 1202.57L415.872 1203.19L379.21 1269.93L371.549 1202.57ZM371.549 1200.5L373.92 1128.4L415.872 1201.33L371.549 1200.5ZM186.048 992.651L352.944 923.229L371.914 1123.02L186.048 992.651ZM185.501 990.791L232.196 835.211L351.85 921.576L185.501 990.791ZM233.29 833.559L286.186 786.451L351.485 918.89L233.29 833.559ZM286.916 783.971L252.989 741.616L400.733 837.897L286.916 783.971ZM252.442 736.45L381.034 672.607L388.877 741.409L252.442 736.45ZM237.12 603.598L394.532 557.317L381.034 669.508L237.12 603.598ZM347.29 506.283L427.728 545.54L395.991 554.837L347.29 506.283ZM230.554 400.704L312.999 382.315L340.541 500.291L230.554 400.704ZM186.413 601.532L120.749 592.441L188.967 528.391L186.413 601.532ZM232.56 604.424L195.898 671.16L188.237 603.805L232.56 604.424ZM246.788 737.07L194.074 759.384L196.263 676.739L246.788 737.07ZM228.548 829.633L160.512 771.368L192.797 761.864L228.548 829.633ZM230.554 833.972L184.407 987.899L159.6 773.227L230.554 833.972ZM183.13 993.064L165.62 1177.78L77.1555 927.774L183.13 993.064ZM298.042 1192.86L145.556 1268.89L166.714 1182.94L298.042 1192.86ZM143.549 1269.1L28.0899 1188.52L164.708 1182.94L143.549 1269.1ZM141.36 1269.93L-53.6253 1287.69L25.3539 1188.93L141.36 1269.93ZM145.008 1271.58L296.948 1195.75L142.82 1355.26L145.008 1271.58ZM185.501 1410.22L102.874 1438.94L141.908 1359.39L185.501 1410.22ZM185.684 1412.28L151.575 1507.12L102.692 1441.21L185.684 1412.28ZM338.717 1373.23L258.096 1523.23L154.311 1508.36L338.717 1373.23ZM413.866 1432.94L367.719 1586.87L342.912 1372.2L413.866 1432.94ZM416.602 1432.53L469.498 1385.42L534.797 1517.86L416.602 1432.53ZM379.575 1359.39L431.376 1337.49L466.944 1381.91L379.575 1359.39ZM380.304 1273.23L410.036 1258.36L429.917 1332.53L380.304 1273.23ZM374.65 1125.92L479.712 1108.97L417.514 1200.5L374.65 1125.92ZM373.92 1123.85L355.133 925.295L480.26 1106.91L373.92 1123.85ZM288.375 786.864L412.042 845.542L353.856 919.923L288.375 786.864ZM391.066 743.682L457.277 752.773L414.048 842.443L391.066 743.682ZM390.701 741.616L383.04 673.846L456 750.707L390.701 741.616ZM395.444 565.994L400.551 650.293L383.04 668.474L395.444 565.994ZM396.72 556.697L429.188 547.192L402.192 645.127L396.72 556.697ZM343.095 502.151L315.735 385.621L427.364 543.473L343.095 502.151ZM228.73 399.051L185.319 355.042L308.986 381.075L228.73 399.051ZM227.088 400.084L165.984 477.564L182.765 355.042L227.088 400.084ZM185.684 293.265L274.695 323.843L183.13 351.736L185.684 293.265ZM186.231 291.405L254.631 178.388L276.884 322.604L186.231 291.405ZM310.628 117.85L357.14 227.355L256.82 175.288L310.628 117.85ZM256.09 173.222L258.096 89.9571L309.351 116.404L256.09 173.222ZM458.736 -37.5233L342.365 134.172L330.144 34.3781L458.736 -37.5233ZM340.724 134.792L312.087 115.577L329.05 39.1302L340.724 134.792ZM459.831 -40.4159L329.78 32.312L298.954 -124.714L459.831 -40.4159ZM327.956 34.5847L310.445 113.511L261.744 25.7004L327.956 34.5847ZM308.439 113.718L258.096 87.6844L260.65 27.7665L308.439 113.718ZM184.589 290.579L81.7156 201.735L253.354 177.148L184.589 290.579ZM180.759 352.769L59.6452 408.762L79.8916 203.594L180.759 352.769ZM188.42 526.118L118.925 591.408L60.7396 413.307L188.42 526.118ZM186.413 603.598L194.074 671.367L121.114 594.507L186.413 603.598ZM192.25 754.219L176.746 694.714L194.439 676.326L192.25 754.219ZM191.885 760.004L159.6 769.508L175.834 698.227L191.885 760.004ZM182.948 990.585L76.6084 925.088L157.776 774.054L182.948 990.585ZM164.708 1180.88L26.2659 1186.66L75.514 929.014L164.708 1180.88ZM23.3476 1188.31L-55.814 1287.28L-121.843 1153.6L23.3476 1188.31ZM-53.99 1289.97L137.348 1272.61L-17.6924 1335.42L-53.99 1289.97ZM-13.8621 1335.84L143.367 1272.2L141.178 1356.29L-13.8621 1335.84ZM150.48 1508.77L66.5764 1562.9L101.415 1442.65L150.48 1508.77ZM66.3939 1565.59L150.845 1511.04L134.612 1671.17L66.3939 1565.59ZM152.669 1510.22L256.82 1525.09L136.436 1670.76L152.669 1510.22ZM259.92 1524.06L341.088 1373.03L366.259 1589.56L259.92 1524.06ZM415.508 1434.18L535.162 1520.55L368.813 1589.76L415.508 1434.18ZM413.501 846.988L437.396 889.964L356.775 919.716L413.501 846.988ZM520.388 968.89L414.96 845.129L458.736 754.632L520.388 968.89ZM383.223 671.161L401.463 652.359L454.176 745.748L383.223 671.161ZM428.276 541.201L315.188 381.489L381.216 354.009L428.276 541.201ZM311.722 379.422L186.413 352.976L277.796 325.29L311.722 379.422ZM256.272 177.355L357.504 229.834L278.708 321.984L256.272 177.355ZM312.999 118.676L341.088 137.272L356.592 221.157L312.999 118.676ZM327.956 32.5186L261.197 23.6342L297.677 -122.235L327.956 32.5186ZM159.053 130.66L251.53 175.082L82.2628 199.462L159.053 130.66ZM194.074 674.053L175.834 692.855L123.12 599.466L194.074 674.053ZM24.4419 1186.45L-121.66 1151.33L73.8724 928.601L24.4419 1186.45ZM-16.5981 1337.49L138.077 1357.94L4.0132 1414.35L-16.5981 1337.49Z" fill="url(#paint1_radial_912_511)"/>
</g>
<mask id="mask2_912_511" style="mask-type:luminance" maskUnits="userSpaceOnUse" x="0" y="0" width="912" height="1550">
<path d="M912 1549.68L912 0.0800781L0.000183105 0.0800338L0.000122166 1549.68L912 1549.68Z" fill="white"/>
</mask>
<g mask="url(#mask2_912_511)">
<path d="M188.602 353.182C188.602 355.042 187.872 356.902 186.778 358.348C185.501 359.794 183.859 360.414 182.218 360.414C180.576 360.414 178.934 359.587 177.658 358.348C176.381 356.902 175.834 355.042 175.834 353.182M424.08 545.746C424.08 547.606 424.81 549.465 425.904 550.911C427.181 552.358 428.822 552.978 430.464 552.978C432.106 552.978 433.747 552.151 435.024 550.911C436.301 549.465 436.848 547.606 436.848 545.746M65.1169 410.208C65.1169 408.348 64.3873 406.489 63.2929 405.042C62.0161 403.596 60.3745 402.976 58.7329 402.976C57.0913 402.976 55.4497 403.803 54.1729 405.042C52.8961 406.489 52.3489 408.348 52.3489 410.208M52.1665 410.208C52.1665 412.067 52.8961 413.927 53.9905 415.373C55.2673 416.819 56.9089 417.439 58.5505 417.439C60.1921 417.439 61.8337 416.613 63.1105 415.373C64.3873 413.927 64.9345 412.067 64.9345 410.208M348.749 502.771C348.749 500.911 348.019 499.052 346.925 497.605C345.648 496.159 344.006 495.539 342.365 495.539C340.723 495.539 339.082 496.366 337.805 497.605C336.528 499.052 335.981 500.911 335.981 502.771M335.798 502.771C335.798 504.63 336.528 506.49 337.622 507.936C338.899 509.382 340.541 510.002 342.182 510.002C343.824 510.002 345.466 509.176 346.742 507.936C348.019 506.49 348.566 504.63 348.566 502.771M234.931 400.084C234.931 398.224 234.202 396.365 233.107 394.918C231.83 393.472 230.189 392.852 228.547 392.852C226.906 392.852 225.264 393.679 223.987 394.918C222.71 396.365 222.163 398.224 222.163 400.084M221.981 400.084C221.981 401.943 222.71 403.803 223.805 405.249C225.082 406.695 226.723 407.315 228.365 407.315C230.006 407.315 231.648 406.489 232.925 405.249C234.202 403.803 234.749 401.943 234.749 400.084M196.262 526.118C196.262 524.465 195.715 522.812 194.803 521.366C193.891 520.126 192.432 519.093 190.973 518.886C189.514 518.68 187.872 518.886 186.595 519.713C185.318 520.539 184.224 521.986 183.859 523.639M183.859 523.639C183.677 524.465 183.494 525.291 183.494 526.118ZM183.494 526.118C183.494 527.977 184.224 529.837 185.318 531.283C186.595 532.729 188.237 533.349 189.878 533.349C191.52 533.349 193.162 532.523 194.438 531.283C195.715 529.837 196.262 527.977 196.262 526.118M402.192 556.077C402.192 554.217 401.462 552.358 400.368 550.911C399.091 549.465 397.45 548.845 395.808 548.845C394.166 548.845 392.525 549.672 391.248 550.911C389.971 552.358 389.424 554.217 389.424 556.077M389.242 556.077C389.242 557.936 389.971 559.796 391.066 561.242C392.342 562.688 393.984 563.308 395.626 563.308C397.267 563.308 398.909 562.482 400.186 561.242C401.462 559.796 402.01 557.936 402.01 556.077M171.274 480.87C171.274 479.01 170.544 477.15 169.45 475.704C168.173 474.258 166.531 473.638 164.89 473.638C163.248 473.638 161.606 474.465 160.33 475.704C159.053 477.15 158.506 479.01 158.506 480.87M158.323 480.87C158.323 482.729 159.053 484.589 160.147 486.035C161.424 487.481 163.066 488.101 164.707 488.101C166.349 488.101 167.99 487.275 169.267 486.035C170.544 484.589 171.091 482.729 171.091 480.87M304.973 508.556C304.973 506.696 304.243 504.837 303.149 503.39C301.872 501.944 300.23 501.324 298.589 501.324C296.947 501.324 295.306 502.151 294.029 503.39C292.752 504.837 292.205 506.696 292.205 508.556M292.205 508.556C292.205 510.415 292.934 512.275 294.029 513.721C295.306 515.167 296.947 515.787 298.589 515.787C300.23 515.787 301.872 514.961 303.149 513.721C304.426 512.275 304.973 510.415 304.973 508.556M193.709 602.565C193.709 600.705 192.979 598.846 191.885 597.399C190.608 595.953 188.966 595.333 187.325 595.333C185.683 595.333 184.042 596.16 182.765 597.399C181.488 598.846 180.941 600.705 180.941 602.565M180.758 602.565C180.758 604.424 181.488 606.284 182.582 607.73C183.859 609.176 185.501 609.796 187.142 609.796C188.784 609.796 190.426 608.97 191.702 607.73C192.979 606.284 193.526 604.424 193.526 602.565M124.944 593.061C124.944 591.201 124.214 589.342 123.12 587.895C121.843 586.449 120.202 585.829 118.56 585.829C116.918 585.829 115.277 586.656 114 587.895C112.723 589.342 112.176 591.201 112.176 593.061M111.994 593.061C111.994 594.92 112.723 596.78 113.818 598.226C115.094 599.672 116.736 600.292 118.378 600.292C120.019 600.292 121.661 599.466 122.938 598.226C124.214 596.78 124.762 594.92 124.762 593.061M233.654 657.937C233.654 656.078 232.925 654.218 231.83 652.772C230.554 651.326 228.912 650.706 227.27 650.706C225.629 650.706 223.987 651.532 222.71 652.772C221.434 654.218 220.886 656.078 220.886 657.937M220.704 657.937C220.704 659.797 221.434 661.656 222.528 663.103C223.805 664.549 225.446 665.169 227.088 665.169C228.73 665.169 230.371 664.342 231.648 663.103C232.925 661.656 233.472 659.797 233.472 657.937M201.734 674.053C201.734 672.193 201.005 670.334 199.91 668.888C198.634 667.441 196.992 666.822 195.35 666.822C193.709 666.822 192.067 667.648 190.79 668.888C189.514 670.334 188.966 672.193 188.966 674.053M188.966 674.053C188.966 675.913 189.696 677.772 190.79 679.218C192.067 680.665 193.709 681.284 195.35 681.284C196.992 681.284 198.634 680.458 199.91 679.218C201.187 677.772 201.734 675.913 201.734 674.053M240.586 603.391C240.586 601.532 239.856 599.672 238.762 598.226C237.485 596.78 235.843 596.16 234.202 596.16C232.56 596.16 230.918 596.986 229.642 598.226C228.365 599.466 227.818 601.532 227.818 603.391M227.818 603.391C227.818 605.251 228.547 607.11 229.642 608.557C230.918 610.003 232.56 610.623 234.202 610.623C235.843 610.623 237.485 609.796 238.762 608.557C240.038 607.11 240.586 605.251 240.586 603.391M407.846 650.706C407.846 648.846 407.117 646.987 406.022 645.54C404.746 644.094 403.104 643.474 401.462 643.474C399.821 643.474 398.179 644.301 396.902 645.54C395.626 646.987 395.078 648.846 395.078 650.706M395.078 650.706C395.078 652.565 395.808 654.425 396.902 655.871C398.179 657.317 399.821 657.937 401.462 657.937C403.104 657.937 404.746 657.111 406.022 655.871C407.299 654.425 407.846 652.565 407.846 650.706M388.147 671.16C388.147 669.301 387.418 667.441 386.323 665.995C385.046 664.549 383.405 663.929 381.763 663.929C380.122 663.929 378.48 664.755 377.203 665.995C375.926 667.441 375.379 669.301 375.379 671.16M375.379 671.16C375.379 673.02 376.109 674.879 377.203 676.326C378.48 677.772 380.122 678.392 381.763 678.392C383.405 678.392 385.046 677.565 386.323 676.326C387.6 674.879 388.147 673.02 388.147 671.16M182.218 694.508C182.218 692.648 181.488 690.789 180.394 689.342C179.117 687.896 177.475 687.276 175.834 687.276C174.192 687.276 172.55 688.103 171.274 689.342C169.997 690.789 169.45 692.648 169.45 694.508M169.267 694.508C169.267 696.367 169.997 698.227 171.091 699.673C172.368 701.119 174.01 701.739 175.651 701.739C177.293 701.739 178.934 700.913 180.211 699.673C181.488 698.227 182.035 696.367 182.035 694.508M199.546 760.831C199.546 758.971 198.816 757.112 197.722 755.665C196.445 754.219 194.803 753.599 193.162 753.599C191.52 753.599 189.878 754.426 188.602 755.665C187.325 757.112 186.778 758.971 186.778 760.831M186.595 760.831C186.595 762.69 187.325 764.55 188.419 765.996C189.696 767.442 191.338 768.062 192.979 768.062C194.621 768.062 196.262 767.236 197.539 765.996C198.816 764.55 199.363 762.69 199.363 760.831M164.707 770.955C164.707 769.095 163.978 767.236 162.883 765.789C161.606 764.343 159.965 763.723 158.323 763.723C156.682 763.723 155.04 764.55 153.763 765.789C152.486 767.236 151.939 769.095 151.939 770.955M151.939 770.955C151.939 772.814 152.669 774.674 153.763 776.12C155.04 777.566 156.682 778.186 158.323 778.186C159.965 778.186 161.606 777.36 162.883 776.12C164.16 774.674 164.707 772.814 164.707 770.955M465.12 751.946C465.12 750.087 464.39 748.227 463.296 746.781C462.019 745.335 460.378 744.715 458.736 744.715C457.094 744.715 455.453 745.541 454.176 746.781C452.899 748.227 452.352 750.087 452.352 751.946M452.352 751.946C452.352 753.806 453.082 755.665 454.176 757.112C455.453 758.558 457.094 759.178 458.736 759.178C460.378 759.178 462.019 758.351 463.296 757.112C464.573 755.665 465.12 753.806 465.12 751.946M528.778 972.816C528.778 970.956 528.048 969.097 526.954 967.651C525.677 966.204 524.035 965.584 522.394 965.584C520.752 965.584 519.11 966.411 517.834 967.651C516.557 969.097 516.01 970.956 516.01 972.816M516.01 972.816C516.01 974.675 516.739 976.535 517.834 977.981C519.11 979.428 520.752 980.047 522.394 980.047C524.035 980.047 525.677 979.221 526.954 977.981C528.23 976.535 528.778 974.675 528.778 972.816M420.067 845.335C420.067 843.476 419.338 841.616 418.243 840.17C416.966 838.724 415.325 838.104 413.683 838.104C412.042 838.104 410.4 838.93 409.123 840.17C407.846 841.616 407.299 843.476 407.299 845.335M407.299 845.335C407.299 847.195 408.029 849.055 409.123 850.501C410.4 851.947 412.042 852.567 413.683 852.567C415.325 852.567 416.966 851.74 418.243 850.501C419.52 849.055 420.067 847.195 420.067 845.335M445.238 890.377C445.238 888.518 444.509 886.658 443.414 885.212C442.138 883.766 440.496 883.146 438.854 883.146C437.213 883.146 435.571 883.972 434.294 885.212C433.018 886.658 432.47 888.518 432.47 890.377M432.288 890.377C432.288 892.237 433.018 894.096 434.112 895.543C435.389 896.989 437.03 897.609 438.672 897.609C440.314 897.609 441.955 896.782 443.232 895.543C444.509 894.096 445.056 892.237 445.056 890.377M254.813 737.483C254.813 735.624 254.083 733.764 252.989 732.318C251.712 730.872 250.07 730.252 248.429 730.252C246.787 730.252 245.146 731.078 243.869 732.318C242.592 733.764 242.045 735.624 242.045 737.483M241.862 737.483C241.862 739.343 242.592 741.202 243.686 742.649C244.963 744.095 246.605 744.715 248.246 744.715C249.888 744.715 251.53 743.888 252.806 742.649C254.083 741.202 254.63 739.343 254.63 737.483M396.355 742.442C396.355 740.583 395.626 738.723 394.531 737.277C393.254 735.83 391.613 735.211 389.971 735.211C388.33 735.211 386.688 736.037 385.411 737.277C384.134 738.723 383.587 740.583 383.587 742.442M383.405 742.442C383.405 744.302 384.134 746.161 385.229 747.607C386.506 749.054 388.147 749.674 389.789 749.674C391.43 749.674 393.072 748.847 394.349 747.607C395.626 746.161 396.173 744.302 396.173 742.442M292.752 784.798C292.752 782.938 292.022 781.079 290.928 779.632C289.651 778.186 288.01 777.566 286.368 777.566C284.726 777.566 283.085 778.393 281.808 779.632C280.531 781.079 279.984 782.938 279.984 784.798M279.984 784.798C279.984 786.657 280.714 788.517 281.808 789.963C283.085 791.409 284.726 792.029 286.368 792.029C288.01 792.029 289.651 791.203 290.928 789.963C292.205 788.517 292.752 786.657 292.752 784.798M360.24 921.782C360.24 919.923 359.51 918.063 358.416 916.617C357.139 915.171 355.498 914.551 353.856 914.551C352.214 914.551 350.573 915.377 349.296 916.617C348.019 918.063 347.472 919.923 347.472 921.782M347.472 921.782C347.472 923.642 348.202 925.502 349.296 926.948C350.573 928.394 352.214 929.014 353.856 929.014C355.498 929.014 357.139 928.187 358.416 926.948C359.693 925.502 360.24 923.642 360.24 921.782M238.032 833.559C238.032 831.699 237.302 829.839 236.208 828.393C234.931 826.947 233.29 826.327 231.648 826.327C230.006 826.327 228.365 827.154 227.088 828.393C225.811 829.839 225.264 831.699 225.264 833.559M225.264 833.559C225.264 835.418 225.994 837.278 227.088 838.724C228.365 840.17 230.006 840.79 231.648 840.79C233.29 840.79 234.931 839.964 236.208 838.724C237.485 837.278 238.032 835.418 238.032 833.559M488.285 1107.53C488.285 1105.67 487.555 1103.81 486.461 1102.36C485.184 1100.92 483.542 1100.3 481.901 1100.3C480.259 1100.3 478.618 1101.12 477.341 1102.36C476.064 1103.81 475.517 1105.67 475.517 1107.53M475.517 1107.53C475.517 1109.39 476.246 1111.25 477.341 1112.69C478.618 1114.14 480.259 1114.76 481.901 1114.76C483.542 1114.76 485.184 1113.93 486.461 1112.69C487.738 1111.25 488.285 1109.39 488.285 1107.53M81.7152 925.501C81.7152 923.642 80.9856 921.782 79.8912 920.336C78.6144 918.89 76.9728 918.27 75.3312 918.27C73.6896 918.27 72.048 919.096 70.7712 920.336C69.4944 921.782 68.9472 923.642 68.9472 925.501M68.9472 925.501C68.9472 927.361 69.6768 929.221 70.7712 930.667C72.048 932.113 73.6896 932.733 75.3312 932.733C76.9728 932.733 78.6144 931.906 79.8912 930.667C81.168 929.221 81.7152 927.361 81.7152 925.501M424.08 1202.36C424.08 1200.5 423.35 1198.64 422.256 1197.2C420.979 1195.75 419.338 1195.13 417.696 1195.13C416.054 1195.13 414.413 1195.96 413.136 1197.2C411.859 1198.64 411.312 1200.5 411.312 1202.36M411.13 1202.36C411.13 1204.22 411.859 1206.08 412.954 1207.53C414.23 1208.98 415.872 1209.59 417.514 1209.59C419.155 1209.59 420.797 1208.77 422.074 1207.53C423.35 1206.08 423.898 1204.22 423.898 1202.36M190.426 992.444C190.426 990.585 189.696 988.725 188.602 987.279C187.325 985.832 185.683 985.213 184.042 985.213C182.4 985.213 180.758 986.039 179.482 987.279C178.205 988.725 177.658 990.585 177.658 992.444M177.658 992.444C177.658 994.304 178.387 996.163 179.482 997.609C180.758 999.056 182.4 999.676 184.042 999.676C185.683 999.676 187.325 998.849 188.602 997.609C189.878 996.163 190.426 994.304 190.426 992.444M379.574 1125.09C379.574 1123.23 378.845 1121.37 377.75 1119.92C376.474 1118.48 374.832 1117.86 373.19 1117.86C371.549 1117.86 369.907 1118.68 368.63 1119.92C367.354 1121.37 366.806 1123.23 366.806 1125.09M366.806 1125.09C366.806 1126.95 367.536 1128.81 368.63 1130.26C369.907 1131.7 371.549 1132.32 373.19 1132.32C374.832 1132.32 376.474 1131.49 377.75 1130.26C379.027 1128.81 379.574 1126.95 379.574 1125.09M308.256 1192.03C308.256 1190.17 307.526 1188.31 306.432 1186.87C305.155 1185.42 303.514 1184.8 301.872 1184.8C300.23 1184.8 298.589 1185.63 297.312 1186.87C296.035 1188.31 295.488 1190.17 295.488 1192.03M295.306 1192.03C295.306 1193.89 296.035 1195.75 297.13 1197.2C298.406 1198.64 300.048 1199.26 301.69 1199.26C303.331 1199.26 304.973 1198.44 306.25 1197.2C307.526 1195.75 308.074 1193.89 308.074 1192.03M31.5552 1187.69C31.5552 1185.83 30.8256 1183.97 29.7312 1182.53C28.4544 1181.08 26.8128 1180.46 25.1712 1180.46C23.5296 1180.46 21.888 1181.29 20.6112 1182.53C19.3344 1183.97 18.7872 1185.83 18.7872 1187.69M18.7872 1187.69C18.7872 1189.55 19.5168 1191.41 20.6112 1192.86C21.888 1194.31 23.5296 1194.93 25.1712 1194.93C26.8128 1194.93 28.4544 1194.1 29.7312 1192.86C31.008 1191.41 31.5552 1189.55 31.5552 1187.69M148.291 1357.53C148.291 1355.67 147.562 1353.81 146.467 1352.36C145.19 1350.92 143.549 1350.3 141.907 1350.3C140.266 1350.3 138.624 1351.12 137.347 1352.36C136.07 1353.81 135.523 1355.67 135.523 1357.53M135.341 1357.53C135.341 1359.39 136.07 1361.25 137.165 1362.7C138.442 1364.14 140.083 1364.76 141.725 1364.76C143.366 1364.76 145.008 1363.93 146.285 1362.7C147.562 1361.25 148.109 1359.39 148.109 1357.53M416.966 1256.91C416.966 1255.05 416.237 1253.19 415.142 1251.74C413.866 1250.3 412.224 1249.68 410.582 1249.68C408.941 1249.68 407.299 1250.5 406.022 1251.74C404.746 1253.19 404.198 1255.05 404.198 1256.91M404.016 1256.91C404.016 1258.77 404.746 1260.63 405.84 1262.07C407.117 1263.52 408.758 1264.14 410.4 1264.14C412.042 1264.14 413.683 1263.31 414.96 1262.07C416.237 1260.63 416.784 1258.77 416.784 1256.91M-49.4303 1288.93C-49.4303 1287.07 -50.1599 1285.22 -51.2543 1283.77C-52.5311 1282.32 -54.1727 1281.7 -55.8143 1281.7C-57.4559 1281.7 -59.0975 1282.53 -60.3743 1283.77C-61.6511 1285.22 -62.1983 1287.07 -62.1983 1288.93M-62.3808 1288.93C-62.3808 1290.79 -61.6512 1292.65 -60.5568 1294.1C-59.28 1295.55 -57.6384 1296.17 -55.9968 1296.17C-54.3552 1296.17 -52.7136 1295.34 -51.4368 1294.1C-50.16 1292.65 -49.6128 1290.79 -49.6128 1288.93M172.55 1181.91C172.55 1180.05 171.821 1178.19 170.726 1176.74C169.45 1175.3 167.808 1174.68 166.166 1174.68C164.525 1174.68 162.883 1175.5 161.606 1176.74C160.33 1178.19 159.782 1180.05 159.782 1181.91M159.6 1181.91C159.6 1183.77 160.33 1185.63 161.424 1187.07C162.701 1188.52 164.342 1189.14 165.984 1189.14C167.626 1189.14 169.267 1188.31 170.544 1187.07C171.821 1185.63 172.368 1183.77 172.368 1181.91M150.662 1270.75C150.662 1268.89 149.933 1267.03 148.838 1265.59C147.562 1264.14 145.92 1263.52 144.278 1263.52C142.637 1263.52 140.995 1264.35 139.718 1265.59C138.442 1267.03 137.894 1268.89 137.894 1270.75M137.712 1270.75C137.712 1272.61 138.442 1274.47 139.536 1275.92C140.813 1277.36 142.454 1277.98 144.096 1277.98C145.738 1277.98 147.379 1277.16 148.656 1275.92C149.933 1274.47 150.48 1272.61 150.48 1270.75M385.229 1273.03C385.229 1271.17 384.499 1269.31 383.405 1267.86C382.128 1266.41 380.486 1265.79 378.845 1265.79C377.203 1265.79 375.562 1266.62 374.285 1267.86C373.008 1269.31 372.461 1271.17 372.461 1273.03M372.278 1273.03C372.278 1274.88 373.008 1276.74 374.102 1278.19C375.379 1279.64 377.021 1280.26 378.662 1280.26C380.304 1280.26 381.946 1279.43 383.222 1278.19C384.499 1276.74 385.046 1274.88 385.046 1273.03M-11.4912 1336.46C-11.4912 1334.6 -12.2208 1332.74 -13.3152 1331.29C-14.592 1329.84 -16.2336 1329.22 -17.8752 1329.22C-19.5168 1329.22 -21.1584 1330.05 -22.4352 1331.29C-23.712 1332.74 -24.2592 1334.6 -24.2592 1336.46M-24.4416 1336.46C-24.4416 1338.31 -23.712 1340.17 -22.6176 1341.62C-21.3408 1343.07 -19.6992 1343.69 -18.0576 1343.69C-16.416 1343.69 -14.7744 1342.86 -13.4976 1341.62C-12.2208 1340.17 -11.6736 1338.31 -11.6736 1336.46M193.709 1410.63C193.709 1408.77 192.979 1406.91 191.885 1405.46C190.608 1404.02 188.966 1403.4 187.325 1403.4C185.683 1403.4 184.042 1404.22 182.765 1405.46C181.488 1406.91 180.941 1408.77 180.941 1410.63M180.758 1410.63C180.758 1412.49 181.488 1414.35 182.582 1415.79C183.859 1417.24 185.501 1417.86 187.142 1417.86C188.784 1417.86 190.426 1417.03 191.702 1415.79C192.979 1414.35 193.526 1412.49 193.526 1410.63M438.125 1336.46C438.125 1334.6 437.395 1332.74 436.301 1331.29C435.024 1329.84 433.382 1329.22 431.741 1329.22C430.099 1329.22 428.458 1330.05 427.181 1331.29C425.904 1332.74 425.357 1334.6 425.357 1336.46M425.357 1336.46C425.357 1338.31 426.086 1340.17 427.181 1341.62C428.458 1343.07 430.099 1343.69 431.741 1343.69C433.382 1343.69 435.024 1342.86 436.301 1341.62C437.578 1340.17 438.125 1338.31 438.125 1336.46M348.019 1369.93C348.019 1368.07 347.29 1366.21 346.195 1364.76C344.918 1363.32 343.277 1362.7 341.635 1362.7C339.994 1362.7 338.352 1363.52 337.075 1364.76C335.798 1366.21 335.251 1368.07 335.251 1369.93M335.251 1369.93C335.251 1371.79 335.981 1373.65 337.075 1375.09C338.352 1376.54 339.994 1377.16 341.635 1377.16C343.277 1377.16 344.918 1376.33 346.195 1375.09C347.472 1373.65 348.019 1371.79 348.019 1369.93M365.53 1293.48C365.53 1291.62 364.8 1289.76 363.706 1288.31C362.429 1286.87 360.787 1286.25 359.146 1286.25C357.504 1286.25 355.862 1287.07 354.586 1288.31C353.309 1289.76 352.762 1291.62 352.762 1293.48M352.579 1293.48C352.579 1295.34 353.309 1297.2 354.403 1298.65C355.68 1300.09 357.322 1300.71 358.963 1300.71C360.605 1300.71 362.246 1299.88 363.523 1298.65C364.8 1297.2 365.347 1295.34 365.347 1293.48M382.858 1357.53C382.858 1355.67 382.128 1353.81 381.034 1352.57C380.486 1351.95 379.757 1351.33 379.027 1350.92C378.298 1350.51 377.386 1350.3 376.656 1350.3C375.014 1350.3 373.373 1350.92 372.096 1352.16C371.549 1352.78 371.002 1353.6 370.637 1354.43C370.272 1355.26 370.09 1356.08 369.907 1357.12M370.09 1356.91C370.09 1357.12 370.09 1357.32 370.09 1357.53ZM370.09 1357.53C370.09 1359.39 370.819 1361.25 371.914 1362.7C373.19 1364.14 374.832 1364.76 376.474 1364.76C378.115 1364.76 379.757 1363.93 381.034 1362.7C382.31 1361.25 382.858 1359.39 382.858 1357.53M107.434 1440.59C107.434 1438.73 106.704 1436.87 105.61 1435.42C104.333 1433.98 102.691 1433.36 101.05 1433.36C99.408 1433.36 97.7664 1434.18 96.4896 1435.42C95.2128 1436.87 94.6656 1438.73 94.6656 1440.59M94.6656 1440.59C94.6656 1442.45 95.3952 1444.31 96.4896 1445.75C97.7664 1447.2 99.408 1447.82 101.05 1447.82C102.691 1447.82 104.333 1446.99 105.61 1445.75C106.886 1444.31 107.434 1442.45 107.434 1440.59M9.66719 1415.79C9.66719 1413.94 8.93759 1412.08 7.84319 1410.63C6.5664 1409.18 4.9248 1408.56 3.2832 1408.56C1.6416 1408.56 -4.16902e-06 1409.39 -1.2768 1410.63C-2.5536 1412.08 -3.1008 1413.94 -3.1008 1415.79M-3.1008 1415.79C-3.1008 1417.65 -2.3712 1419.51 -1.2768 1420.96C-4.62956e-06 1422.41 1.6416 1423.03 3.28319 1423.03C4.92479 1423.03 6.56639 1422.2 7.84319 1420.96C9.11999 1419.51 9.66719 1417.65 9.66719 1415.79M71.5008 1565.18C71.5008 1563.32 70.7712 1561.46 69.6768 1560.01C68.4 1558.56 66.7584 1557.94 65.1168 1557.94C63.4752 1557.94 61.8336 1558.77 60.5568 1560.01C59.28 1561.46 58.7328 1563.32 58.7328 1565.18M58.5504 1565.18C58.5504 1567.04 59.28 1568.9 60.3744 1570.34C61.6512 1571.79 63.2928 1572.41 64.9344 1572.41C66.576 1572.41 68.2176 1571.58 69.4944 1570.34C70.7712 1568.9 71.3184 1567.04 71.3184 1565.18M158.323 1508.98C158.323 1507.12 157.594 1505.26 156.499 1503.81C155.222 1502.37 153.581 1501.75 151.939 1501.75C150.298 1501.75 148.656 1502.57 147.379 1503.81C146.102 1505.26 145.555 1507.12 145.555 1508.98M145.373 1508.98C145.373 1510.84 146.102 1512.7 147.197 1514.14C148.474 1515.59 150.115 1516.21 151.757 1516.21C153.398 1516.21 155.04 1515.38 156.317 1514.14C157.594 1512.7 158.141 1510.84 158.141 1508.98M373.738 1591.42C373.738 1589.56 373.008 1587.7 371.914 1586.25C370.637 1584.8 368.995 1584.18 367.354 1584.18C365.712 1584.18 364.07 1585.01 362.794 1586.25C361.517 1587.7 360.97 1589.56 360.97 1591.42M360.97 1591.42C360.97 1593.28 361.699 1595.14 362.794 1596.58C364.07 1598.03 365.712 1598.65 367.354 1598.65C368.995 1598.65 370.637 1597.82 371.914 1596.58C373.19 1595.14 373.738 1593.28 373.738 1591.42M141.542 1673.65C141.542 1671.79 140.813 1669.93 139.718 1668.48C138.624 1667.04 136.8 1666.42 135.158 1666.42C133.517 1666.42 131.875 1667.24 130.598 1668.48C129.322 1669.93 128.774 1671.79 128.774 1673.65M128.774 1673.65C128.774 1675.51 129.504 1677.37 130.598 1678.81C131.875 1680.26 133.517 1680.88 135.158 1680.88C136.8 1680.88 138.442 1680.05 139.718 1678.81C140.995 1677.37 141.542 1675.51 141.542 1673.65M543.552 1520.75C543.552 1518.89 542.822 1517.04 541.728 1515.59C540.451 1514.14 538.81 1513.52 537.168 1513.52C535.526 1513.52 533.885 1514.35 532.608 1515.59C531.331 1517.04 530.784 1518.89 530.784 1520.75M530.784 1520.75C530.784 1522.61 531.514 1524.47 532.608 1525.92C533.885 1527.37 535.526 1527.99 537.168 1527.99C538.81 1527.99 540.451 1527.16 541.728 1525.92C543.005 1524.47 543.552 1522.61 543.552 1520.75M265.027 1524.27C265.027 1522.41 264.298 1520.55 263.203 1519.1C261.926 1517.66 260.285 1517.04 258.643 1517.04C257.002 1517.04 255.36 1517.86 254.083 1519.1C252.806 1520.55 252.259 1522.41 252.259 1524.27M252.259 1524.27C252.259 1526.13 252.989 1527.99 254.083 1529.43C255.36 1530.88 257.002 1531.5 258.643 1531.5C260.285 1531.5 261.926 1530.67 263.203 1529.43C264.48 1527.99 265.027 1526.13 265.027 1524.27M476.064 1383.77C476.064 1381.91 475.334 1380.05 474.24 1378.6C472.963 1377.16 471.322 1376.54 469.68 1376.54C468.038 1376.54 466.397 1377.36 465.12 1378.6C463.843 1380.05 463.296 1381.91 463.296 1383.77M463.296 1383.77C463.296 1385.63 464.026 1387.49 465.12 1388.94C466.397 1390.38 468.038 1391 469.68 1391C471.322 1391 472.963 1390.17 474.24 1388.94C475.517 1387.49 476.064 1385.63 476.064 1383.77M421.344 1432.53C421.344 1430.67 420.614 1428.81 419.52 1427.37C418.243 1425.92 416.602 1425.3 414.96 1425.3C413.318 1425.3 411.677 1426.13 410.4 1427.37C409.123 1428.81 408.576 1430.67 408.576 1432.53M408.576 1432.53C408.576 1434.39 409.306 1436.25 410.4 1437.7C411.677 1439.14 413.318 1439.76 414.96 1439.76C416.602 1439.76 418.243 1438.94 419.52 1437.7C420.797 1436.25 421.344 1434.39 421.344 1432.53M335.616 33.7582C335.616 31.8987 334.886 30.0392 333.792 28.5929C332.515 27.1466 330.874 26.5268 329.232 26.5268C327.59 26.5268 325.949 27.3532 324.672 28.5929C323.395 30.0392 322.848 31.8987 322.848 33.7582M322.666 33.7582C322.666 35.6178 323.395 37.4773 324.49 38.9236C325.766 40.3699 327.408 40.9897 329.05 40.9897C330.691 40.9897 332.333 40.1633 333.61 38.9236C334.886 37.4773 335.434 35.6178 335.434 33.7582M468.403 -40.4159C468.403 -42.2755 467.674 -44.135 466.579 -45.5813C465.302 -47.0276 463.661 -47.6474 462.019 -47.6474C460.378 -47.6474 458.736 -46.821 457.459 -45.5813C456.182 -44.135 455.635 -42.2755 455.635 -40.4159M455.453 -40.4159C455.453 -38.5564 456.182 -36.6969 457.277 -35.2506C458.554 -33.8043 460.195 -33.1845 461.837 -33.1845C463.478 -33.1845 465.12 -34.0109 466.397 -35.2506C467.674 -36.6969 468.221 -38.5564 468.221 -40.4159M503.424 94.0894C503.424 92.2298 502.694 90.3703 501.6 88.924C500.323 87.4777 498.682 86.8579 497.04 86.8579C495.398 86.8579 493.757 87.6843 492.48 88.924C491.203 90.3703 490.656 92.2298 490.656 94.0894M490.474 94.0894C490.474 95.9489 491.203 97.8084 492.298 99.2547C493.574 100.701 495.216 101.321 496.858 101.321C498.499 101.321 500.141 100.494 501.418 99.2547C502.694 97.8084 503.242 95.9489 503.242 94.0894M304.243 -126.574C304.243 -128.433 303.514 -130.293 302.419 -131.739C301.142 -133.185 299.501 -133.805 297.859 -133.805C296.218 -133.805 294.576 -132.979 293.299 -131.739C292.022 -130.293 291.475 -128.433 291.475 -126.574M291.293 -126.574C291.293 -124.714 292.022 -122.855 293.117 -121.408C294.394 -119.962 296.035 -119.342 297.677 -119.342C299.318 -119.342 300.96 -120.169 302.237 -121.408C303.514 -122.855 304.061 -124.714 304.061 -126.574M317.376 116.197C317.376 114.337 316.829 112.478 315.552 111.238C315.005 110.618 314.275 109.999 313.546 109.585C312.816 109.172 312.086 108.965 311.174 108.965C309.533 108.759 307.891 109.379 306.614 110.618C305.338 111.858 304.608 113.511 304.426 115.371M348.202 136.858C348.202 134.999 347.472 133.139 346.378 131.693C345.101 130.247 343.459 129.627 341.818 129.627C340.176 129.627 338.534 130.453 337.258 131.693C335.981 133.139 335.434 134.999 335.434 136.858M335.434 136.858C335.434 138.718 336.163 140.577 337.258 142.024C338.534 143.47 340.176 144.09 341.818 144.09C343.459 144.09 345.101 143.263 346.378 142.024C347.654 140.577 348.202 138.718 348.202 136.858M304.608 115.371C304.608 115.577 304.608 115.99 304.608 116.197ZM304.426 116.197C304.426 118.056 305.155 119.916 306.25 121.362C307.526 122.809 309.168 123.428 310.81 123.428C312.451 123.428 314.093 122.602 315.37 121.362C316.646 119.916 317.194 118.056 317.194 116.197M266.486 24.4606C266.486 22.8077 265.939 21.1548 265.027 19.7085C264.115 18.4689 262.656 17.4358 261.197 17.2292C259.738 17.0226 258.096 17.2292 256.819 18.0556C255.542 18.8821 254.448 20.3284 254.083 21.9813M253.901 21.9813C253.718 22.8077 253.536 23.6342 253.536 24.4606ZM253.536 24.4606C253.536 26.3202 254.266 28.1797 255.36 29.626C256.637 31.0723 258.278 31.6921 259.92 31.6921C261.562 31.6921 263.203 30.8656 264.48 29.626C265.757 28.1797 266.304 26.3202 266.304 24.4606M365.347 229.421C365.347 227.562 364.618 225.702 363.523 224.256C362.246 222.809 360.605 222.19 358.963 222.19C357.322 222.19 355.68 223.016 354.403 224.256C353.126 225.702 352.579 227.562 352.579 229.421M352.579 229.421C352.579 231.281 353.309 233.14 354.403 234.586C355.68 236.033 357.322 236.653 358.963 236.653C360.605 236.653 362.246 235.826 363.523 234.586C364.8 233.14 365.347 231.281 365.347 229.421M85.728 200.908C85.728 199.049 84.9984 197.189 83.9041 195.743C82.6273 194.297 80.9857 193.677 79.3441 193.677C77.7025 193.677 76.0609 194.503 74.7841 195.743C73.5073 197.189 72.9601 199.049 72.9601 200.908M72.7776 200.908C72.7776 202.768 73.5072 204.627 74.6016 206.074C75.8784 207.52 77.52 208.14 79.1616 208.14C80.8032 208.14 82.4448 207.313 83.7216 206.074C84.9984 204.627 85.5456 202.768 85.5456 200.908M261.562 175.702C261.562 173.842 260.832 171.983 259.738 170.536C258.461 169.09 256.819 168.47 255.178 168.47C253.536 168.47 251.894 169.297 250.618 170.536C249.341 171.983 248.794 173.842 248.794 175.702M248.794 175.702C248.794 177.561 249.523 179.421 250.618 180.867C251.894 182.313 253.536 182.933 255.178 182.933C256.819 182.933 258.461 182.107 259.738 180.867C261.014 179.421 261.562 177.561 261.562 175.702M191.155 292.025C191.155 290.165 190.426 288.306 189.331 286.86C188.054 285.413 186.413 284.793 184.771 284.793C183.13 284.793 181.488 285.62 180.211 286.86C178.934 288.306 178.387 290.165 178.387 292.025M178.387 292.025C178.387 293.884 179.117 295.744 180.211 297.19C181.488 298.637 183.13 299.256 184.771 299.256C186.413 299.256 188.054 298.43 189.331 297.19C190.608 295.744 191.155 293.884 191.155 292.025M165.437 129.42C165.437 127.561 164.707 125.701 163.613 124.255C162.336 122.809 160.694 122.189 159.053 122.189C157.411 122.189 155.77 123.015 154.493 124.255C153.216 125.701 152.669 127.561 152.669 129.42M152.486 129.42C152.486 131.28 153.216 133.139 154.31 134.586C155.587 136.032 157.229 136.652 158.87 136.652C160.512 136.652 162.154 135.825 163.43 134.586C164.707 133.139 165.254 131.28 165.254 129.42M320.112 380.869C320.112 379.009 319.382 377.15 318.288 375.703C317.011 374.257 315.37 373.637 313.728 373.637C312.086 373.637 310.445 374.464 309.168 375.703C307.891 377.15 307.344 379.009 307.344 380.869M307.344 380.869C307.344 382.728 308.074 384.588 309.168 386.034C310.445 387.48 312.086 388.1 313.728 388.1C315.37 388.1 317.011 387.274 318.288 386.034C319.565 384.588 320.112 382.728 320.112 380.869M388.33 352.769C388.33 350.91 387.6 349.05 386.506 347.604C385.229 346.158 383.587 345.538 381.946 345.538C380.304 345.538 378.662 346.364 377.386 347.604C376.109 349.05 375.562 350.91 375.562 352.769M375.379 352.769C375.379 354.629 376.109 356.488 377.203 357.935C378.48 359.381 380.122 360.001 381.763 360.001C383.405 360.001 385.046 359.174 386.323 357.935C387.6 356.488 388.147 354.629 388.147 352.769M284.544 324.05C284.544 322.19 283.814 320.331 282.72 318.885C281.443 317.438 279.802 316.819 278.16 316.819C276.518 316.819 274.877 317.645 273.6 318.885C272.323 320.331 271.776 322.19 271.776 324.05M271.594 324.05C271.594 325.91 272.323 327.769 273.418 329.215C274.694 330.662 276.336 331.281 277.978 331.281C279.619 331.281 281.261 330.455 282.538 329.215C283.814 327.769 284.362 325.91 284.362 324.05M188.602 353.182C188.602 351.323 187.872 349.463 186.778 348.017C185.501 346.571 183.859 345.951 182.218 345.951C180.576 345.951 178.934 346.777 177.658 348.017C176.381 349.463 175.834 351.323 175.834 353.182M436.848 545.746C436.848 543.887 436.118 542.027 435.024 540.581C433.747 539.134 432.106 538.515 430.464 538.515C428.822 538.515 427.181 539.341 425.904 540.581C424.627 542.027 424.08 543.887 424.08 545.746" fill="url(#paint2_radial_912_511)"/>
</g>
</g>
<defs>
<radialGradient id="paint0_radial_912_511" cx="0" cy="0" r="1" gradientUnits="userSpaceOnUse" gradientTransform="translate(206.893 773.612) rotate(90) scale(689.286 608.507)">
<stop offset="0.3372" stop-color="#8CC541" stop-opacity="0.48"/>
<stop offset="0.8258" stop-color="#304F00" stop-opacity="0.19"/>
</radialGradient>
<radialGradient id="paint1_radial_912_511" cx="0" cy="0" r="1" gradientUnits="userSpaceOnUse" gradientTransform="translate(206.891 773.605) rotate(90) scale(801.765 707.804)">
<stop offset="0.3372" stop-color="#8CC541"/>
<stop offset="0.7736" stop-color="#304F00" stop-opacity="0.21"/>
<stop offset="0.8258" stop-color="#304F00" stop-opacity="0"/>
</radialGradient>
<radialGradient id="paint2_radial_912_511" cx="0" cy="0" r="1" gradientUnits="userSpaceOnUse" gradientTransform="translate(240.664 773.612) rotate(90) scale(935.077 825.494)">
<stop stop-color="#D4D4D5"/>
<stop offset="0.2987" stop-color="#8CC541"/>
<stop offset="1" stop-color="#304F00"/>
</radialGradient>
</defs>
</svg>
