<svg width="1908" height="1230" viewBox="0 0 1908 1230" fill="none" xmlns="http://www.w3.org/2000/svg">
<g opacity="0.3">
<path d="M1908 0H0V1248.15H1908V0Z" fill="#1D212C"/>
<path d="M1013.28 0L1003.35 145.535C1001.57 211.687 1058.56 263.61 1122.67 253.375L1209.67 239.645C1272.25 229.91 1328.99 279.586 1328.99 344.49V437.602C1328.99 510.744 1399.45 561.918 1466.62 537.704C1534.8 513.24 1606.03 566.162 1604.25 640.302L1603.74 665.764C1602.47 725.176 1649.02 774.354 1707.28 774.354H1908V0H1013.28Z" fill="url(#paint0_linear_912_497)"/>
<mask id="mask0_912_497" style="mask-type:luminance" maskUnits="userSpaceOnUse" x="0" y="40" width="1908" height="1249">
<path d="M1908 40H0V1288.15H1908V40Z" fill="white"/>
</mask>
<g mask="url(#mask0_912_497)">
<path opacity="0.2" d="M216.24 938.919L159.509 1070.47L247.531 1179.56L216.24 938.919ZM41.4673 837.819L-155.947 880.755L30.0193 932.429L41.4673 837.819ZM282.384 796.88L216.24 938.919L398.899 907.466L282.384 796.88ZM434.77 1038.77L492.518 975.365L469.114 858.538L434.77 1038.77ZM434.261 765.676L469.114 858.788L672.125 699.025L434.261 765.676ZM1671.41 1093.94L1736.79 1031.78L1592.29 796.63L1671.41 1093.94ZM1763.76 720.243L1959.39 785.397L1872.38 552.991L1763.76 720.243ZM925.762 660.332L1040.5 721.991L1197.46 573.211L925.762 660.332ZM1455.17 1060.99L1462.29 1253.7L1564.56 1090.94L1455.17 1060.99ZM647.702 1028.29L591.989 1062.74L504.984 1208.02L647.702 1028.29ZM1134.88 803.869L1385.21 777.408L1363.58 628.629L1197.72 573.211L1096.21 687.542L1040.5 721.991L907.699 948.156L810.01 977.113L742.848 967.377L684.59 746.454L826.291 765.426L914.314 754.443L907.954 948.156L826.291 765.676L810.264 977.362L830.107 1020.8L936.955 1024.04L1026.76 971.122L949.675 1071.47L1222.39 1036.28L1139.97 1185.05L949.675 1071.47L855.547 1047.76L730.891 1126.14L830.362 1020.8L743.357 967.627L742.339 1031.78L648.211 1028.29L743.357 967.627L626.842 879.507L648.466 1028.29L730.891 1125.89L742.594 1031.78L830.616 1020.8L855.802 1047.76L937.464 1024.04L966.974 896.482L1027.01 971.371L1134.88 803.869L966.211 896.233L1040.75 721.991L1134.88 803.869L1096.21 687.542L1040.5 721.991L914.059 754.443L925.762 660.332L801.106 738.716L671.87 699.025L618.955 819.596L626.078 879.507L504.984 1207.77L730.128 1125.89L647.702 1028.29L492.518 975.365L626.078 879.507L684.336 746.454L618.955 819.596L492.518 975.365L591.989 1062.49L434.77 1038.52L504.984 1207.52L247.277 1179.56L159.255 1070.47L108.629 936.173L30.0193 932.429L142.973 862.782L108.629 936.173L215.986 938.919L-155.947 880.755L-50.1167 656.088L41.2129 837.819L168.158 820.345L115.498 608.159L-50.1167 656.088L168.158 820.345L41.2129 837.819L142.719 862.782L282.13 796.88L168.158 820.345L142.719 862.782L215.986 939.169L359.213 1035.53L434.515 1039.02L247.277 1179.56L359.467 1035.28L398.899 907.716L469.114 858.788L619.21 819.596L672.125 699.025L684.59 746.454L801.106 738.466L826.291 765.426L742.848 967.377L829.853 1020.55L907.954 947.906L936.701 1023.54L949.166 1070.97L1026.25 970.622L1221.88 1035.78L1455.17 1060.49L1139.46 1184.56L1671.41 1093.44L1743.15 1283.16L1645.46 1312.12L1587.2 1364.04L1418.53 1456.4L1462.55 1252.95L1139.46 1184.31L1418.53 1456.4L1462.55 1252.95L1587.2 1363.79L1564.56 1090.94L1467.63 875.264L1671.41 1094.19L1645.46 1312.87L1564.56 1090.94L1671.41 1094.19L1773.68 1150.11L1858.14 1080.46L1592.54 796.88L1567.36 769.92L1645.46 697.277L1674.21 772.915L1703.72 645.354L1763.76 720.243L1673.95 773.165L1567.1 769.92L1479.08 780.903L1384.95 777.408L1455.17 1060.99L1467.63 875.264L1592.29 796.88L1567.1 769.92L1480.1 716.748L1479.08 780.903L1467.38 875.014L1566.85 769.67L1547.01 726.234L1479.84 716.499L1384.7 777.159L1221.37 1036.03L1134.88 803.869L1363.58 628.629L1480.1 716.748L1547.26 726.484L1644.95 697.527L1703.21 645.604L1871.88 553.24L1673.7 773.414L1686.16 820.844L1857.63 1080.46L2060.39 1103.43L1876.45 934.426L1686.16 820.844L1592.04 797.129L1673.7 773.414L1763.5 720.493L1686.42 820.844L1959.39 785.397L1876.96 934.176L1858.14 1080.21L1737.04 1031.78L1773.93 1149.86L1858.39 1080.21L1927.59 1199.03L1773.68 1149.86L1743.15 1283.66L1927.08 1199.03L2060.64 1103.18L1857.88 1080.21L1773.68 1149.86L1671.41 1093.94L1564.56 1090.69L1455.17 1060.74L1221.88 1036.03L1134.88 803.869Z" fill="url(#paint1_radial_912_497)"/>
</g>
<mask id="mask1_912_497" style="mask-type:luminance" maskUnits="userSpaceOnUse" x="0" y="40" width="1908" height="1249">
<path d="M1908 40H0V1288.15H1908V40Z" fill="white"/>
</mask>
<g mask="url(#mask1_912_497)">
<path opacity="0.5" d="M2061.91 1103.67C2061.91 1103.43 2061.91 1103.18 2061.91 1102.93C2061.91 1102.68 2061.91 1102.68 2061.66 1102.43L1878.49 934.176L1960.66 786.145C1960.66 786.145 1960.66 786.145 1960.66 785.895V785.646V785.396C1960.66 785.396 1960.66 785.396 1960.66 785.146L1873.66 552.74C1873.4 552.491 1873.15 552.241 1872.64 552.241C1872.38 552.241 1872.38 552.241 1872.13 552.241L1703.46 644.604L1645.46 696.278L1548.28 725.235L1481.63 715.749L1365.36 627.879C1365.11 627.63 1364.86 627.63 1364.6 627.63C1364.6 627.63 1364.6 627.63 1364.35 627.63C1364.09 627.63 1363.84 627.63 1363.84 627.879L1136.4 801.872L1098.5 688.04L1199.5 574.209C1199.5 574.209 1199.5 573.959 1199.75 573.959C1199.75 573.959 1199.75 573.959 1199.75 573.709V573.46C1199.75 573.46 1199.75 573.46 1199.75 573.21V572.961C1199.75 572.961 1199.75 572.961 1199.75 572.711L1199.5 572.461C1199.5 572.461 1199.24 572.212 1198.99 572.212C1198.99 572.212 1198.99 572.212 1198.73 572.212H1198.48H1198.22C1198.22 572.212 1198.22 572.212 1197.97 572.212L925.507 659.083H925.253L801.106 737.217L672.379 697.776C672.379 697.776 672.379 697.776 672.125 697.776C672.125 697.776 672.125 697.776 671.87 697.776L434.006 764.427C433.752 764.427 433.498 764.677 433.243 765.176C432.989 765.426 432.989 765.925 433.243 766.175L467.587 858.538L399.154 906.217L283.402 796.13L283.147 795.881C282.893 795.881 282.893 795.881 282.638 795.881L169.685 819.096L117.278 607.909V607.659V607.41C117.278 607.41 117.024 607.41 117.024 607.16C117.024 607.16 117.024 607.16 116.77 606.91H116.515C116.515 606.91 116.515 606.91 116.261 606.91H116.006H115.752L-50.3712 654.839L-156.202 879.507C-156.202 879.756 -156.202 879.756 -156.202 880.006C-156.202 880.256 -156.202 880.256 -156.202 880.505C-156.202 880.505 -156.202 880.755 -155.947 880.755L-155.693 881.005L29.7648 933.677L107.611 937.421L157.982 1071.22C157.982 1071.22 157.982 1071.22 157.982 1071.47V1071.72L246.005 1180.81C246.005 1180.81 246.005 1180.81 246.259 1180.81C246.259 1180.81 246.259 1180.81 246.514 1181.06H246.768C246.768 1181.06 246.768 1181.06 247.022 1181.06L504.73 1209.27C504.73 1209.27 504.73 1209.27 504.984 1209.27C505.238 1209.27 505.238 1209.27 505.493 1209.27L730.637 1127.39C730.637 1127.39 730.637 1127.39 730.891 1127.39L855.038 1049.26L948.403 1072.72L1138.19 1186.05L1417.52 1457.9C1417.52 1457.9 1417.52 1457.9 1417.77 1457.9H1418.03H1418.28C1418.53 1457.9 1418.53 1457.9 1418.79 1457.9L1587.46 1365.54C1587.46 1365.54 1587.71 1365.54 1587.71 1365.29L1645.71 1313.61L1743.15 1284.66C1743.4 1284.66 1743.4 1284.66 1743.66 1284.41L1743.91 1284.16C1743.91 1284.16 1743.91 1284.16 1743.91 1283.91L1774.19 1151.35L1926.32 1200.28H1926.57C1926.57 1200.28 1926.57 1200.28 1926.83 1200.28C1927.08 1200.28 1927.33 1200.28 1927.33 1200.03L2060.89 1104.17C2061.66 1103.92 2061.91 1103.92 2061.91 1103.67ZM1742.89 1279.17L1673.7 1096.69L1772.15 1150.36L1742.89 1279.17ZM159.254 1067.23L110.41 937.421L214.205 940.167L159.254 1067.23ZM114.734 609.656L166.123 817.099L-47.064 656.587L114.734 609.656ZM1095.45 686.792L1050.42 714.501L1177.62 593.929L1095.45 686.792ZM1546.75 727.482L1564.56 766.674L1486.2 718.745L1546.75 727.482ZM359.976 1036.52L431.208 1039.77L253.891 1172.82L359.976 1036.52ZM593.006 1063.48L642.106 1033.03L515.923 1192.04L593.006 1063.48ZM505.238 1205.02L436.805 1040.27L589.954 1063.48L505.238 1205.02ZM592.243 1060.99L498.115 978.61L644.904 1028.54L592.243 1060.99ZM915.331 755.44L1037.95 723.737L909.226 943.163L915.331 755.44ZM1737.81 1030.78L1600.18 806.615L1853.3 1076.96L1737.81 1030.78ZM684.082 750.448L740.558 964.381L627.605 879.257L684.082 750.448ZM808.992 975.864L744.629 966.628L824.51 773.663L808.992 975.864ZM827.054 770.668L906.173 947.406L811.536 975.614L827.054 770.668ZM626.842 874.764L620.227 820.095L680.011 753.443L626.842 874.764ZM624.806 879.008L499.387 969.124L618.192 822.841L624.806 879.008ZM625.315 881.753L646.176 1026.54L495.317 975.115L625.315 881.753ZM627.859 882.502L740.558 967.626L648.72 1026.29L627.859 882.502ZM741.576 969.873L740.813 1030.53L652.027 1027.29L741.576 969.873ZM809.246 978.36L827.054 1017.55L748.699 969.623L809.246 978.36ZM811.79 978.111L903.12 950.901L830.362 1018.55L811.79 978.111ZM966.974 898.978L1024.47 970.622L938.482 1021.3L966.974 898.978ZM936.192 1019.55L909.48 948.654L964.176 899.976L936.192 1019.55ZM1684.89 818.847L1597.12 796.629L1673.19 774.412L1684.89 818.847ZM1592.8 795.381L1570.16 771.167L1666.07 773.913L1592.8 795.381ZM1590.51 796.629L1475.52 868.773L1567.36 771.666L1590.51 796.629ZM1469.41 871.519L1480.61 782.151L1564.05 771.666L1469.41 871.519ZM1466.87 872.018L1388.01 778.656L1478.06 781.901L1466.87 872.018ZM1454.4 1052.75L1387.75 782.401L1466.36 875.513L1454.4 1052.75ZM1453.39 1059.49L1223.92 1035.28L1384.44 780.653L1453.39 1059.49ZM1591.53 798.876L1668.86 1089.45L1469.67 875.513L1591.53 798.876ZM1595.85 804.867L1735.26 1031.78L1672.17 1091.69L1595.85 804.867ZM1596.36 799.126L1685.91 821.842L1848.72 1068.73L1596.36 799.126ZM1675.48 773.663L1758.67 724.736L1687.18 817.848L1675.48 773.663ZM1675.99 770.418L1704.23 648.099L1761.72 719.743L1675.99 770.418ZM1570.41 768.671L1644.95 699.523L1672.43 771.666L1570.41 768.671ZM1480.61 779.655L1481.37 718.994L1563.54 769.17L1480.61 779.655ZM1478.06 779.655L1389.28 776.409L1479.08 718.994L1478.06 779.655ZM1222.14 1033.53L1136.66 805.117L1382.66 779.155L1222.14 1033.53ZM1219.85 1034.28L1028.28 970.372L1134.62 806.615L1219.85 1034.28ZM1026.25 968.874L968.246 896.482L1131.32 807.114L1026.25 968.874ZM965.194 895.483L913.042 941.914L1031.59 739.714L965.194 895.483ZM906.682 942.663L828.072 766.674L912.787 755.94L906.682 942.663ZM743.102 963.632L686.117 748.201L824.256 766.674L743.102 963.632ZM623.28 812.855L671.616 702.768L683.064 746.204L623.28 812.855ZM493.282 972.619L470.64 859.786L615.902 822.092L493.282 972.619ZM740.558 1033.03L729.365 1122.9L650.501 1029.53L740.558 1033.03ZM744.12 969.873L826.291 1020.05L743.357 1030.53L744.12 969.873ZM907.445 950.402L934.92 1022.55L833.16 1019.55L907.445 950.402ZM1021.42 975.365L949.675 1068.48L937.973 1024.29L1021.42 975.365ZM1026.76 972.619L1216.29 1035.78L951.965 1069.73L1026.76 972.619ZM1222.65 1037.52L1450.08 1061.49L1142.26 1182.56L1222.65 1037.52ZM1468.65 880.256L1562.27 1088.95L1456.44 1059.99L1468.65 880.256ZM1562.52 1091.69L1463.31 1249.71L1456.44 1062.74L1562.52 1091.69ZM1563.54 1094.69L1585.42 1361.54L1463.82 1253.45L1563.54 1094.69ZM1565.58 1089.7L1472.21 881.753L1668.61 1092.69L1565.58 1089.7ZM1736.28 1034.28L1771.64 1147.36L1673.7 1093.94L1736.28 1034.28ZM1738.82 1034.03L1855.59 1080.71L1774.44 1147.61L1738.82 1034.03ZM1690.74 824.588L1875.44 934.925L1857.12 1076.96L1690.74 824.588ZM1764.26 721.74L1953.79 784.897L1689.47 818.847L1764.26 721.74ZM1763.75 717.996L1705.75 645.603L1868.82 556.235L1763.75 717.996ZM1673.7 768.671L1646.73 697.776L1701.43 649.098L1673.7 768.671ZM1567.61 767.672L1549.3 726.983L1640.63 699.773L1567.61 767.672ZM1386.23 775.411L1365.36 631.624L1478.06 716.748L1386.23 775.411ZM1383.68 776.409L1139.2 802.121L1362.82 630.875L1383.68 776.409ZM968.755 893.486L1041 724.237L1132.59 803.869L968.755 893.486ZM915.586 752.944L926.779 662.328L1037.19 721.491L915.586 752.944ZM913.042 753.443L829.598 763.928L924.235 664.076L913.042 753.443ZM696.802 746.953L800.597 739.963L822.984 763.928L696.802 746.953ZM685.354 745.206L673.651 700.771L794.237 737.717L685.354 745.206ZM618.192 818.597L474.71 856.041L669.072 703.268L618.192 818.597ZM491.246 975.115L437.059 1034.53L469.114 865.278L491.246 975.115ZM492.518 977.362L587.918 1060.99L437.059 1038.02L492.518 977.362ZM360.994 1034.03L398.645 912.208L432.989 1037.52L360.994 1034.03ZM358.704 1033.28L219.547 939.668L397.118 909.213L358.704 1033.28ZM145.008 863.031L279.84 799.375L215.731 936.672L145.008 863.031ZM213.187 937.671L110.664 934.925L143.227 864.779L213.187 937.671ZM-46.3008 660.331L165.106 819.595L42.2304 836.321L-46.3008 660.331ZM165.869 821.842L142.21 861.034L48.0816 837.818L165.869 821.842ZM-49.8624 658.833L39.6864 836.82L-153.658 879.008L-49.8624 658.833ZM42.4848 839.316L139.666 863.281L31.5456 929.932L42.4848 839.316ZM139.92 866.027L107.866 934.925L34.0896 931.43L139.92 866.027ZM357.686 1035.53L248.294 1176.32L218.021 941.415L357.686 1035.53ZM434.261 1040.77L503.203 1206.52L250.584 1178.81L434.261 1040.77ZM647.702 1030.28L728.093 1125.39L508.8 1205.02L647.702 1030.28ZM743.102 1033.03L826.546 1022.55L731.909 1122.4L743.102 1033.03ZM928.56 1025.04L855.293 1046.26L832.651 1022.05L928.56 1025.04ZM935.683 1025.54L947.386 1069.73L859.618 1047.51L935.683 1025.54ZM1219.59 1037.77L1138.95 1183.31L952.982 1072.22L1219.59 1037.77ZM1453.9 1062.74L1461.02 1252.21L1143.78 1184.8L1453.9 1062.74ZM1463.05 1256.2L1584.91 1364.54L1420.31 1454.9L1463.05 1256.2ZM1588.22 1362.04L1566.85 1100.18L1644.19 1312.37L1588.22 1362.04ZM1644.7 1307.12L1566.34 1091.94L1669.88 1094.94L1644.7 1307.12ZM1857.63 1082.21L1924.28 1197.04L1776.22 1149.36L1857.63 1082.21ZM1927.59 1197.29L1860.43 1081.71L2057.59 1103.92L1927.59 1197.29ZM1859.41 1079.21L1877.73 936.672L2057.08 1101.43L1859.41 1079.21ZM1876.45 932.428L1690.49 821.343L1957.1 786.894L1876.45 932.428ZM1765.79 719.494L1872.13 555.736L1957.35 783.399L1765.79 719.494ZM1042.79 722.24L1095.7 689.538L1132.33 799.875L1042.79 722.24ZM1192.88 575.956L1040.5 720.243L929.069 660.331L1192.88 575.956ZM826.291 763.678L803.141 738.715L918.13 666.572L826.291 763.678ZM666.274 702.02L469.622 856.79L435.787 766.424L666.274 702.02ZM467.078 861.533L434.515 1033.03L400.426 907.965L467.078 861.533ZM218.275 937.421L282.893 798.876L396.355 906.717L218.275 937.421ZM146.026 859.786L168.922 821.343L272.208 800.124L146.026 859.786ZM39.9408 839.316L29.0016 930.681L-150.605 880.755L39.9408 839.316ZM160.781 1070.47L215.477 943.911L245.496 1175.57L160.781 1070.47ZM829.853 1022.55L853.003 1047.51L738.014 1119.65L829.853 1022.55ZM1460.76 1254.7L1417.52 1454.66L1143.27 1187.05L1460.76 1254.7ZM1646.73 1310.87L1671.92 1099.18L1741.37 1282.66L1646.73 1310.87Z" fill="url(#paint2_radial_912_497)"/>
</g>
<mask id="mask2_912_497" style="mask-type:luminance" maskUnits="userSpaceOnUse" x="0" y="40" width="1908" height="1249">
<path d="M1908 40H0V1288.15H1908V40Z" fill="white"/>
</mask>
<g mask="url(#mask2_912_497)">
<path d="M434.77 1030.03C437.059 1030.03 439.349 1031.03 441.13 1032.53C442.91 1034.28 443.674 1036.53 443.674 1038.77C443.674 1041.02 442.656 1043.27 441.13 1045.01C439.349 1046.76 437.059 1047.51 434.77 1047.51M671.87 707.762C674.16 707.762 676.45 706.763 678.23 705.266C680.011 703.518 680.774 701.271 680.774 699.025C680.774 696.778 679.757 694.531 678.23 692.784C676.45 691.037 674.16 690.288 671.87 690.288M504.984 1199.03C502.694 1199.03 500.405 1200.03 498.624 1201.53C496.843 1203.28 496.08 1205.52 496.08 1207.77C496.08 1210.02 497.098 1212.26 498.624 1214.01C500.405 1215.76 502.694 1216.51 504.984 1216.51M504.984 1216.76C507.274 1216.76 509.563 1215.76 511.344 1214.26C513.125 1212.51 513.888 1210.27 513.888 1208.02C513.888 1205.77 512.87 1203.53 511.344 1201.78C509.563 1200.03 507.274 1199.28 504.984 1199.28M618.955 810.859C616.666 810.859 614.376 811.858 612.595 813.356C610.814 815.103 610.051 817.35 610.051 819.596C610.051 821.843 611.069 824.09 612.595 825.837C614.376 827.584 616.666 828.333 618.955 828.333M618.955 828.583C621.245 828.583 623.534 827.584 625.315 826.087C627.096 824.339 627.859 822.093 627.859 819.846C627.859 817.599 626.842 815.353 625.315 813.605C623.534 811.858 621.245 811.109 618.955 811.109M492.518 966.629C490.229 966.629 487.939 967.627 486.158 969.125C484.378 970.872 483.614 973.119 483.614 975.366C483.614 977.612 484.632 979.859 486.158 981.606C487.939 983.354 490.229 984.103 492.518 984.103M492.518 984.352C494.808 984.352 497.098 983.354 498.878 981.856C500.659 980.109 501.422 977.862 501.422 975.615C501.422 973.369 500.405 971.122 498.878 969.375C497.098 967.627 494.808 966.878 492.518 966.878M647.702 1019.55C645.667 1019.55 643.632 1020.3 641.851 1021.55C640.325 1022.8 639.053 1024.79 638.798 1026.79C638.544 1028.79 638.798 1031.03 639.816 1032.78C640.834 1034.53 642.614 1036.03 644.65 1036.53M644.65 1036.53C645.667 1036.77 646.685 1037.02 647.702 1037.02ZM647.702 1037.02C649.992 1037.02 652.282 1036.03 654.062 1034.53C655.843 1032.78 656.606 1030.53 656.606 1028.29C656.606 1026.04 655.589 1023.79 654.062 1022.05C652.282 1020.3 649.992 1019.55 647.702 1019.55M684.59 737.718C682.301 737.718 680.011 738.716 678.23 740.214C676.45 741.961 675.686 744.208 675.686 746.455C675.686 748.701 676.704 750.948 678.23 752.695C680.011 754.443 682.301 755.192 684.59 755.192M684.59 755.441C686.88 755.441 689.17 754.443 690.95 752.945C692.731 751.198 693.494 748.951 693.494 746.704C693.494 744.458 692.477 742.211 690.95 740.463C689.17 738.716 686.88 737.967 684.59 737.967M591.989 1053.75C589.699 1053.75 587.41 1054.75 585.629 1056.25C583.848 1057.99 583.085 1060.24 583.085 1062.49C583.085 1064.73 584.102 1066.98 585.629 1068.73C587.41 1070.47 589.699 1071.22 591.989 1071.22M591.989 1071.47C594.278 1071.47 596.568 1070.47 598.349 1068.98C600.13 1067.23 600.893 1064.98 600.893 1062.74C600.893 1060.49 599.875 1058.24 598.349 1056.5C596.568 1054.75 594.278 1054 591.989 1054M626.078 870.771C623.789 870.771 621.499 871.769 619.718 873.267C617.938 875.014 617.174 877.261 617.174 879.508C617.174 881.754 618.192 884.001 619.718 885.748C621.499 887.496 623.789 888.245 626.078 888.245M626.078 888.245C628.368 888.245 630.658 887.246 632.438 885.748C634.219 884.001 634.982 881.754 634.982 879.508C634.982 877.261 633.965 875.014 632.438 873.267C630.658 871.519 628.368 870.771 626.078 870.771M741.83 1023.05C739.541 1023.05 737.251 1024.04 735.47 1025.54C733.69 1027.29 732.926 1029.54 732.926 1031.78C732.926 1034.03 733.944 1036.28 735.47 1038.02C737.251 1039.77 739.541 1040.52 741.83 1040.52M741.83 1040.77C744.12 1040.77 746.41 1039.77 748.19 1038.27C749.971 1036.53 750.734 1034.28 750.734 1032.03C750.734 1029.79 749.717 1027.54 748.19 1025.79C746.41 1024.04 744.12 1023.29 741.83 1023.29M730.128 1117.16C727.838 1117.16 725.549 1118.15 723.768 1119.65C721.987 1121.4 721.224 1123.65 721.224 1125.89C721.224 1128.14 722.242 1130.39 723.768 1132.13C725.549 1133.88 727.838 1134.63 730.128 1134.63M730.128 1134.88C732.418 1134.88 734.707 1133.88 736.488 1132.38C738.269 1130.64 739.032 1128.39 739.032 1126.14C739.032 1123.9 738.014 1121.65 736.488 1119.9C734.707 1118.15 732.418 1117.41 730.128 1117.41M810.01 968.376C807.72 968.376 805.43 969.375 803.65 970.872C801.869 972.62 801.106 974.866 801.106 977.113C801.106 979.36 802.123 981.606 803.65 983.354C805.43 985.101 807.72 985.85 810.01 985.85M810.01 986.1C812.299 986.1 814.589 985.101 816.37 983.604C818.15 981.856 818.914 979.609 818.914 977.363C818.914 975.116 817.896 972.869 816.37 971.122C814.589 969.375 812.299 968.626 810.01 968.626M829.853 1012.06C827.563 1012.06 825.274 1013.06 823.493 1014.56C821.712 1016.31 820.949 1018.55 820.949 1020.8C820.949 1023.05 821.966 1025.29 823.493 1027.04C825.274 1028.79 827.563 1029.54 829.853 1029.54M829.853 1029.54C832.142 1029.54 834.432 1028.54 836.213 1027.04C837.994 1025.29 838.757 1023.05 838.757 1020.8C838.757 1018.55 837.739 1016.31 836.213 1014.56C834.432 1012.81 832.142 1012.06 829.853 1012.06M742.848 958.89C740.558 958.89 738.269 959.889 736.488 961.386C734.707 963.134 733.944 965.38 733.944 967.627C733.944 969.874 734.962 972.121 736.488 973.868C738.014 975.615 740.558 976.364 742.848 976.364M742.848 976.364C745.138 976.364 747.427 975.366 749.208 973.868C750.989 972.121 751.752 969.874 751.752 967.627C751.752 965.38 750.734 963.134 749.208 961.386C747.427 959.639 745.138 958.89 742.848 958.89M801.106 729.979C798.816 729.979 796.526 730.977 794.746 732.475C792.965 734.223 792.202 736.469 792.202 738.716C792.202 740.963 793.219 743.209 794.746 744.957C796.526 746.704 798.816 747.453 801.106 747.453M801.106 747.453C803.395 747.453 805.685 746.455 807.466 744.957C809.246 743.209 810.01 740.963 810.01 738.716C810.01 736.469 808.992 734.223 807.466 732.475C805.685 730.728 803.395 729.979 801.106 729.979M826.291 756.939C824.002 756.939 821.712 757.938 819.931 759.435C818.15 761.183 817.387 763.429 817.387 765.676C817.387 767.923 818.405 770.169 819.931 771.917C821.712 773.664 824.002 774.413 826.291 774.413M826.291 774.413C828.581 774.413 830.87 773.415 832.651 771.917C834.432 770.169 835.195 767.923 835.195 765.676C835.195 763.429 834.178 761.183 832.651 759.435C830.87 757.688 828.581 756.939 826.291 756.939M855.038 1038.77C852.749 1038.77 850.459 1039.77 848.678 1041.27C846.898 1043.02 846.134 1045.26 846.134 1047.51C846.134 1049.76 847.152 1052 848.678 1053.75C850.459 1055.5 852.749 1056.25 855.038 1056.25M855.038 1056.5C857.328 1056.5 859.618 1055.5 861.398 1054C863.179 1052.25 863.942 1050.01 863.942 1047.76C863.942 1045.51 862.925 1043.27 861.398 1041.52C859.618 1039.77 857.328 1039.02 855.038 1039.02M936.701 1015.06C934.411 1015.06 932.122 1016.06 930.341 1017.55C928.56 1019.3 927.797 1021.55 927.797 1023.79C927.797 1026.04 928.814 1028.29 930.341 1030.03C932.122 1031.78 934.411 1032.53 936.701 1032.53M936.701 1032.78C938.99 1032.78 941.28 1031.78 943.061 1030.28C944.842 1028.54 945.605 1026.29 945.605 1024.04C945.605 1021.8 944.587 1019.55 943.061 1017.8C941.28 1016.06 938.99 1015.31 936.701 1015.31M949.166 1062.74C946.877 1062.74 944.587 1063.73 942.806 1065.23C941.026 1066.98 940.262 1069.23 940.262 1071.47C940.262 1073.72 941.28 1075.97 942.806 1077.71C944.587 1079.46 946.877 1080.21 949.166 1080.21M949.166 1080.21C951.456 1080.21 953.746 1079.21 955.526 1077.71C957.307 1075.97 958.07 1073.72 958.07 1071.47C958.07 1069.23 957.053 1066.98 955.526 1065.23C953.746 1063.49 951.456 1062.74 949.166 1062.74M925.762 651.595C923.472 651.595 921.182 652.594 919.402 654.091C917.621 655.839 916.858 658.085 916.858 660.332C916.858 662.579 917.875 664.825 919.402 666.573C921.182 668.32 923.472 669.069 925.762 669.069M925.762 669.069C928.051 669.069 930.341 668.071 932.122 666.573C933.902 664.825 934.666 662.579 934.666 660.332C934.666 658.085 933.648 655.839 932.122 654.091C930.341 652.344 928.051 651.595 925.762 651.595M1197.72 564.474C1195.43 564.474 1193.14 565.473 1191.36 566.97C1189.57 568.718 1188.81 570.964 1188.81 573.211C1188.81 575.458 1189.83 577.704 1191.36 579.452C1193.14 581.199 1195.43 581.948 1197.72 581.948M1197.72 581.948C1200 581.948 1202.29 580.95 1204.08 579.452C1205.86 577.704 1206.62 575.458 1206.62 573.211C1206.62 570.964 1205.6 568.718 1204.08 566.97C1202.29 565.223 1200 564.474 1197.72 564.474M1040.75 713.254C1038.46 713.254 1036.17 714.252 1034.39 715.75C1032.61 717.497 1031.85 719.744 1031.85 721.991C1031.85 724.237 1032.86 726.484 1034.39 728.232C1036.17 729.979 1038.46 730.728 1040.75 730.728M1040.75 730.728C1043.04 730.728 1045.33 729.729 1047.11 728.232C1048.89 726.484 1049.65 724.237 1049.65 721.991C1049.65 719.744 1048.64 717.497 1047.11 715.75C1045.33 714.003 1043.04 713.254 1040.75 713.254M1096.21 678.805C1093.92 678.805 1091.63 679.803 1089.85 681.301C1088.07 683.048 1087.31 685.295 1087.31 687.542C1087.31 689.788 1088.32 692.035 1089.85 693.783C1091.63 695.53 1093.92 696.279 1096.21 696.279M1096.21 696.528C1098.5 696.528 1100.79 695.53 1102.57 694.032C1104.35 692.285 1105.11 690.038 1105.11 687.791C1105.11 685.545 1104.1 683.298 1102.57 681.551C1100.79 679.803 1098.5 679.054 1096.21 679.054M907.954 939.419C905.664 939.419 903.374 940.417 901.594 941.915C899.813 943.663 899.05 945.909 899.05 948.156C899.05 950.403 900.067 952.649 901.594 954.397C903.374 956.144 905.664 956.893 907.954 956.893M907.954 957.143C910.243 957.143 912.533 956.144 914.314 954.646C916.094 952.899 916.858 950.652 916.858 948.406C916.858 946.159 915.84 943.912 914.314 942.165C912.533 940.417 910.243 939.669 907.954 939.669M914.059 745.706C911.77 745.706 909.48 746.704 907.699 748.202C905.918 749.949 905.155 752.196 905.155 754.443C905.155 756.689 906.173 758.936 907.699 760.684C909.48 762.431 911.77 763.18 914.059 763.18M914.059 763.429C916.349 763.429 918.638 762.431 920.419 760.933C922.2 759.186 922.963 756.939 922.963 754.692C922.963 752.446 921.946 750.199 920.419 748.452C918.638 746.704 916.349 745.955 914.059 745.955M966.211 887.496C963.922 887.496 961.632 888.494 959.851 889.992C958.07 891.739 957.307 893.986 957.307 896.233C957.307 898.48 958.325 900.726 959.851 902.474C961.632 904.221 963.922 904.97 966.211 904.97M966.211 904.97C968.501 904.97 970.79 903.971 972.571 902.474C974.352 900.726 975.115 898.48 975.115 896.233C975.115 893.986 974.098 891.739 972.571 889.992C970.79 888.245 968.501 887.496 966.211 887.496M1134.88 795.133C1132.59 795.133 1130.3 796.131 1128.52 797.629C1126.74 799.376 1125.97 801.623 1125.97 803.87C1125.97 806.116 1126.99 808.363 1128.52 810.11C1130.3 811.858 1132.59 812.607 1134.88 812.607M1134.88 812.607C1137.17 812.607 1139.46 811.608 1141.24 810.11C1143.02 808.363 1143.78 806.116 1143.78 803.87C1143.78 801.623 1142.76 799.376 1141.24 797.629C1139.46 795.881 1137.17 795.133 1134.88 795.133M1026.25 962.385C1023.96 962.385 1021.67 963.383 1019.89 964.881C1018.11 966.629 1017.35 968.875 1017.35 971.122C1017.35 973.369 1018.36 975.615 1019.89 977.363C1021.67 979.11 1023.96 979.859 1026.25 979.859M1026.25 979.859C1028.54 979.859 1030.83 978.861 1032.61 977.363C1034.39 975.615 1035.15 973.369 1035.15 971.122C1035.15 968.875 1034.14 966.629 1032.61 964.881C1030.83 963.134 1028.54 962.385 1026.25 962.385M1363.58 619.892C1361.29 619.892 1359 620.89 1357.22 622.388C1355.44 624.136 1354.68 626.382 1354.68 628.629C1354.68 630.876 1355.7 633.122 1357.22 634.87C1359 636.617 1361.29 637.366 1363.58 637.366M1363.58 637.366C1365.87 637.366 1368.16 636.368 1369.94 634.87C1371.72 633.122 1372.49 630.876 1372.49 628.629C1372.49 626.382 1371.47 624.136 1369.94 622.388C1368.16 620.641 1365.87 619.892 1363.58 619.892M1139.46 1176.32C1137.17 1176.32 1134.88 1177.32 1133.1 1178.81C1131.32 1180.56 1130.55 1182.81 1130.55 1185.06C1130.55 1187.3 1131.57 1189.55 1133.1 1191.3C1134.88 1193.04 1137.17 1193.79 1139.46 1193.79M1139.46 1193.79C1141.75 1193.79 1144.04 1192.79 1145.82 1191.3C1147.6 1189.55 1148.36 1187.3 1148.36 1185.06C1148.36 1182.81 1147.34 1180.56 1145.82 1178.81C1144.04 1177.07 1141.75 1176.32 1139.46 1176.32M1480.35 707.762C1478.06 707.762 1475.77 708.76 1473.99 710.258C1472.21 712.006 1471.45 714.252 1471.45 716.499C1471.45 718.746 1472.47 720.992 1473.99 722.74C1475.77 724.487 1478.06 725.236 1480.35 725.236M1480.35 725.486C1482.64 725.486 1484.93 724.487 1486.71 722.989C1488.49 721.242 1489.26 718.995 1489.26 716.749C1489.26 714.502 1488.24 712.255 1486.71 710.508C1484.93 708.76 1482.64 708.011 1480.35 708.011M1221.88 1027.54C1219.59 1027.54 1217.3 1028.54 1215.52 1030.03C1213.74 1031.78 1212.98 1034.03 1212.98 1036.28C1212.98 1038.52 1214 1040.77 1215.52 1042.52C1217.3 1044.26 1219.59 1045.01 1221.88 1045.01M1221.88 1045.01C1224.17 1045.01 1226.46 1044.01 1228.24 1042.52C1230.02 1040.77 1230.79 1038.52 1230.79 1036.28C1230.79 1034.03 1229.77 1031.78 1228.24 1030.03C1226.46 1028.29 1224.17 1027.54 1221.88 1027.54M1385.21 768.672C1382.92 768.672 1380.63 769.67 1378.85 771.168C1377.07 772.915 1376.3 775.162 1376.3 777.409C1376.3 779.655 1377.32 781.902 1378.85 783.649C1380.63 785.397 1382.92 786.146 1385.21 786.146M1385.21 786.146C1387.5 786.146 1389.79 785.147 1391.57 783.649C1393.35 781.902 1394.11 779.655 1394.11 777.409C1394.11 775.162 1393.09 772.915 1391.57 771.168C1389.79 769.421 1387.5 768.672 1385.21 768.672M1467.63 866.277C1465.34 866.277 1463.05 867.276 1461.27 868.773C1459.49 870.521 1458.73 872.768 1458.73 875.014C1458.73 877.261 1459.75 879.508 1461.27 881.255C1463.05 883.002 1465.34 883.751 1467.63 883.751M1467.63 884.001C1469.92 884.001 1472.21 883.002 1473.99 881.505C1475.77 879.757 1476.54 877.511 1476.54 875.264C1476.54 873.017 1475.52 870.771 1473.99 869.023C1472.21 867.276 1469.92 866.527 1467.63 866.527M1462.29 1244.97C1460 1244.97 1457.71 1245.97 1455.93 1247.46C1454.15 1249.21 1453.39 1251.46 1453.39 1253.7C1453.39 1255.95 1454.4 1258.2 1455.93 1259.94C1457.71 1261.69 1460 1262.44 1462.29 1262.44M1462.29 1262.44C1464.58 1262.44 1466.87 1261.44 1468.65 1259.94C1470.43 1258.2 1471.2 1255.95 1471.2 1253.7C1471.2 1251.46 1470.18 1249.21 1468.65 1247.46C1466.87 1245.72 1464.58 1244.97 1462.29 1244.97M1671.41 1085.2C1669.12 1085.2 1666.83 1086.2 1665.05 1087.7C1663.27 1089.45 1662.5 1091.69 1662.5 1093.94C1662.5 1096.19 1663.52 1098.43 1665.05 1100.18C1666.83 1101.93 1669.12 1102.68 1671.41 1102.68M1671.41 1102.93C1673.7 1102.93 1675.99 1101.93 1677.77 1100.43C1679.55 1098.68 1680.31 1096.44 1680.31 1094.19C1680.31 1091.94 1679.29 1089.7 1677.77 1087.95C1675.99 1086.2 1673.7 1085.45 1671.41 1085.45M1547.52 717.497C1545.23 717.497 1542.94 718.496 1541.16 719.994C1539.37 721.741 1538.61 723.988 1538.61 726.234C1538.61 728.481 1539.63 730.728 1541.16 732.475C1542.94 734.223 1545.23 734.972 1547.52 734.972M1547.52 735.221C1549.8 735.221 1552.09 734.223 1553.88 732.725C1555.66 730.977 1556.42 728.731 1556.42 726.484C1556.42 724.237 1555.4 721.991 1553.88 720.243C1552.09 718.496 1549.8 717.747 1547.52 717.747M1586.95 1355.8C1584.66 1355.8 1582.37 1356.8 1580.59 1358.3C1578.81 1360.05 1578.04 1362.29 1578.04 1364.54C1578.04 1366.79 1579.06 1369.03 1580.59 1370.78C1582.37 1372.53 1584.66 1373.28 1586.95 1373.28M1586.95 1373.53C1589.24 1373.53 1591.53 1372.53 1593.31 1371.03C1595.09 1369.28 1595.85 1367.04 1595.85 1364.79C1595.85 1362.54 1594.83 1360.3 1593.31 1358.55C1591.53 1356.8 1589.24 1356.05 1586.95 1356.05M1455.17 1052C1452.88 1052 1450.59 1053 1448.81 1054.5C1447.03 1056.25 1446.26 1058.49 1446.26 1060.74C1446.26 1062.99 1447.28 1065.23 1448.81 1066.98C1450.59 1068.73 1452.88 1069.48 1455.17 1069.48M1455.17 1069.73C1457.46 1069.73 1459.75 1068.73 1461.53 1067.23C1463.31 1065.48 1464.07 1063.24 1464.07 1060.99C1464.07 1058.74 1463.05 1056.5 1461.53 1054.75C1459.75 1053 1457.46 1052.25 1455.17 1052.25M1564.56 1081.96C1562.27 1081.96 1559.98 1082.96 1558.2 1084.45C1556.42 1086.2 1555.66 1088.45 1555.66 1090.69C1555.66 1092.94 1556.67 1095.19 1558.2 1096.94C1559.98 1098.68 1562.27 1099.43 1564.56 1099.43M1564.56 1099.68C1566.85 1099.68 1569.14 1098.68 1570.92 1097.19C1572.7 1095.44 1573.46 1093.19 1573.46 1090.94C1573.46 1088.7 1572.45 1086.45 1570.92 1084.7C1569.14 1082.96 1566.85 1082.21 1564.56 1082.21M1567.36 760.933C1565.07 760.933 1562.78 761.932 1561 763.429C1559.22 765.177 1558.45 767.423 1558.45 769.67C1558.45 771.917 1559.47 774.164 1561 775.911C1562.78 777.658 1565.07 778.407 1567.36 778.407M1567.36 778.657C1569.65 778.657 1571.94 777.658 1573.72 776.161C1575.5 774.413 1576.26 772.166 1576.26 769.92C1576.26 767.673 1575.24 765.426 1573.72 763.679C1571.94 761.932 1569.65 761.183 1567.36 761.183M1645.46 1303.88C1643.17 1303.88 1640.88 1304.88 1639.1 1306.38C1637.32 1308.12 1636.56 1310.37 1636.56 1312.62C1636.56 1314.86 1637.57 1317.11 1639.1 1318.86C1640.88 1320.6 1643.17 1321.35 1645.46 1321.35M1645.46 1321.6C1647.75 1321.6 1650.04 1320.6 1651.82 1319.11C1653.6 1317.36 1654.36 1315.11 1654.36 1312.87C1654.36 1310.62 1653.35 1308.37 1651.82 1306.63C1650.04 1304.88 1647.75 1304.13 1645.46 1304.13M1736.79 1023.05C1734.5 1023.05 1732.21 1024.04 1730.43 1025.54C1728.65 1027.29 1727.88 1029.54 1727.88 1031.78C1727.88 1034.03 1728.9 1036.28 1730.43 1038.02C1732.21 1039.77 1734.5 1040.52 1736.79 1040.52M1736.79 1040.77C1739.08 1040.77 1741.37 1039.77 1743.15 1038.27C1744.93 1036.53 1745.69 1034.28 1745.69 1032.03C1745.69 1029.79 1744.68 1027.54 1743.15 1025.79C1741.37 1024.04 1739.08 1023.29 1736.79 1023.29M1645.46 688.54C1643.17 688.54 1640.88 689.539 1639.1 691.037C1637.32 692.784 1636.56 695.031 1636.56 697.277C1636.56 699.524 1637.57 701.771 1639.1 703.518C1640.88 705.266 1643.17 706.014 1645.46 706.014M1645.46 706.014C1647.75 706.014 1650.04 705.016 1651.82 703.518C1653.6 701.771 1654.36 699.524 1654.36 697.277C1654.36 695.031 1653.35 692.784 1651.82 691.037C1650.04 689.289 1647.75 688.54 1645.46 688.54M1686.67 811.858C1684.38 811.858 1682.09 812.856 1680.31 814.354C1678.53 816.101 1677.77 818.348 1677.77 820.595C1677.77 822.842 1678.79 825.088 1680.31 826.836C1682.09 828.583 1684.38 829.332 1686.67 829.332M1686.67 829.332C1688.96 829.332 1691.25 828.333 1693.03 826.836C1694.81 825.088 1695.58 822.842 1695.58 820.595C1695.58 818.348 1694.56 816.101 1693.03 814.354C1691.25 812.607 1688.96 811.858 1686.67 811.858M1592.54 787.893C1590.25 787.893 1587.96 788.892 1586.18 790.39C1584.4 792.137 1583.64 794.384 1583.64 796.63C1583.64 798.877 1584.66 801.124 1586.18 802.871C1587.96 804.618 1590.25 805.367 1592.54 805.367M1592.54 805.617C1594.83 805.617 1597.12 804.618 1598.9 803.121C1600.68 801.373 1601.45 799.127 1601.45 796.88C1601.45 794.633 1600.43 792.387 1598.9 790.639C1597.12 788.892 1594.83 788.143 1592.54 788.143M1671.41 764.178C1669.12 764.178 1666.83 765.177 1665.3 766.675C1664.54 767.424 1663.78 768.422 1663.27 769.421C1662.76 770.419 1662.5 771.667 1662.5 772.666C1662.5 774.912 1663.27 777.159 1664.79 778.907C1665.56 779.655 1666.57 780.404 1667.59 780.904C1668.61 781.403 1669.63 781.652 1670.9 781.902M1670.64 781.652C1670.9 781.652 1671.15 781.652 1671.41 781.652ZM1671.41 781.652C1673.7 781.652 1675.99 780.654 1677.77 779.156C1679.55 777.409 1680.31 775.162 1680.31 772.915C1680.31 770.669 1679.29 768.422 1677.77 766.675C1675.99 764.927 1673.7 764.178 1671.41 764.178M1773.68 1141.12C1771.39 1141.12 1769.1 1142.12 1767.32 1143.62C1765.54 1145.36 1764.77 1147.61 1764.77 1149.86C1764.77 1152.1 1765.79 1154.35 1767.32 1156.1C1769.1 1157.85 1771.39 1158.59 1773.68 1158.59M1773.68 1158.59C1775.97 1158.59 1778.26 1157.6 1780.04 1156.1C1781.82 1154.35 1782.58 1152.1 1782.58 1149.86C1782.58 1147.61 1781.56 1145.36 1780.04 1143.62C1778.26 1141.87 1775.97 1141.12 1773.68 1141.12M1743.15 1274.92C1740.86 1274.92 1738.57 1275.92 1736.79 1277.42C1735.01 1279.17 1734.24 1281.41 1734.24 1283.66C1734.24 1285.91 1735.26 1288.15 1736.79 1289.9C1738.57 1291.65 1740.86 1292.4 1743.15 1292.4M1743.15 1292.4C1745.44 1292.4 1747.73 1291.4 1749.51 1289.9C1751.29 1288.15 1752.05 1285.91 1752.05 1283.66C1752.05 1281.41 1751.04 1279.17 1749.51 1277.42C1747.73 1275.67 1745.44 1274.92 1743.15 1274.92M1927.08 1190.3C1924.79 1190.3 1922.5 1191.3 1920.72 1192.79C1918.94 1194.54 1918.18 1196.79 1918.18 1199.03C1918.18 1201.28 1919.19 1203.53 1920.72 1205.28C1922.5 1207.02 1924.79 1207.77 1927.08 1207.77M1927.08 1208.02C1929.37 1208.02 1931.66 1207.02 1933.44 1205.52C1935.22 1203.78 1935.98 1201.53 1935.98 1199.28C1935.98 1197.04 1934.97 1194.79 1933.44 1193.04C1931.66 1191.3 1929.37 1190.55 1927.08 1190.55M1857.88 1071.47C1855.59 1071.47 1853.3 1072.47 1851.52 1073.97C1849.74 1075.72 1848.98 1077.96 1848.98 1080.21C1848.98 1082.46 1850 1084.7 1851.52 1086.45C1853.3 1088.2 1855.59 1088.95 1857.88 1088.95M1857.88 1089.2C1860.17 1089.2 1862.46 1088.2 1864.24 1086.7C1866.02 1084.95 1866.79 1082.71 1866.79 1080.46C1866.79 1078.21 1865.77 1075.97 1864.24 1074.22C1862.46 1072.47 1860.17 1071.72 1857.88 1071.72M1959.39 776.66C1957.1 776.66 1954.81 777.658 1953.03 779.156C1951.25 780.904 1950.48 783.15 1950.48 785.397C1950.48 787.644 1951.5 789.89 1953.03 791.638C1954.81 793.385 1957.1 794.134 1959.39 794.134M1959.39 794.134C1961.68 794.134 1963.97 793.135 1965.75 791.638C1967.53 789.89 1968.29 787.644 1968.29 785.397C1968.29 783.15 1967.28 780.904 1965.75 779.156C1963.97 777.409 1961.68 776.66 1959.39 776.66M2060.64 1094.44C2058.35 1094.44 2056.06 1095.44 2054.28 1096.94C2052.5 1098.43 2051.74 1100.93 2051.74 1103.18C2051.74 1105.42 2052.75 1107.67 2054.28 1109.42C2056.06 1111.16 2058.35 1111.91 2060.64 1111.91M2060.64 1111.91C2062.93 1111.91 2065.22 1110.92 2067 1109.42C2068.78 1107.67 2069.54 1105.42 2069.54 1103.18C2069.54 1100.93 2068.53 1098.68 2067 1096.94C2065.22 1095.19 2062.93 1094.44 2060.64 1094.44M1872.38 544.254C1870.09 544.254 1867.8 545.252 1866.02 546.75C1864.24 548.498 1863.48 550.744 1863.48 552.991C1863.48 555.238 1864.5 557.484 1866.02 559.232C1867.8 560.979 1870.09 561.728 1872.38 561.728M1872.38 561.728C1874.67 561.728 1876.96 560.73 1878.74 559.232C1880.52 557.484 1881.29 555.238 1881.29 552.991C1881.29 550.744 1880.27 548.498 1878.74 546.75C1876.96 545.003 1874.67 544.254 1872.38 544.254M1876.71 925.44C1874.42 925.44 1872.13 926.438 1870.35 927.936C1868.57 929.683 1867.8 931.93 1867.8 934.177C1867.8 936.423 1868.82 938.67 1870.35 940.417C1872.13 942.165 1874.42 942.914 1876.71 942.914M1876.71 942.914C1879 942.914 1881.29 941.915 1883.07 940.417C1884.85 938.67 1885.61 936.423 1885.61 934.177C1885.61 931.93 1884.6 929.683 1883.07 927.936C1881.29 926.189 1879 925.44 1876.71 925.44M1703.72 636.617C1701.43 636.617 1699.14 637.616 1697.36 639.113C1695.58 640.861 1694.81 643.108 1694.81 645.354C1694.81 647.601 1695.83 649.848 1697.36 651.595C1699.14 653.342 1701.43 654.091 1703.72 654.091M1703.72 654.091C1706.01 654.091 1708.3 653.093 1710.08 651.595C1711.86 649.848 1712.62 647.601 1712.62 645.354C1712.62 643.108 1711.6 640.861 1710.08 639.113C1708.3 637.366 1706.01 636.617 1703.72 636.617M1763.76 711.506C1761.47 711.506 1759.18 712.505 1757.4 714.003C1755.61 715.75 1754.85 717.997 1754.85 720.243C1754.85 722.49 1755.87 724.737 1757.4 726.484C1759.18 728.232 1761.47 728.98 1763.76 728.98M1763.76 728.98C1766.04 728.98 1768.33 727.982 1770.12 726.484C1771.9 724.737 1772.66 722.49 1772.66 720.243C1772.66 717.997 1771.64 715.75 1770.12 714.003C1768.33 712.255 1766.04 711.506 1763.76 711.506M41.4673 828.833C39.1777 828.833 36.8881 829.831 35.1073 831.329C33.3265 833.076 32.5633 835.323 32.5633 837.57C32.5633 839.816 33.5809 842.063 35.1073 843.81C36.8881 845.558 39.1777 846.307 41.4673 846.307M41.4673 846.556C43.7569 846.556 46.0465 845.558 47.8273 844.06C49.6081 842.313 50.3713 840.066 50.3713 837.819C50.3713 835.573 49.3537 833.326 47.8273 831.579C46.0465 829.831 43.7569 829.082 41.4673 829.082M-49.8623 647.102C-52.1519 647.102 -54.4415 648.1 -56.2223 649.598C-58.0031 651.345 -58.7663 653.592 -58.7663 655.839C-58.7663 658.085 -57.7487 660.332 -56.2223 662.079C-54.4415 663.827 -52.1519 664.576 -49.8623 664.576M-49.8623 664.825C-47.5727 664.825 -45.2831 663.827 -43.5023 662.329C-41.7215 660.582 -40.9583 658.335 -40.9583 656.088C-40.9583 653.842 -41.9759 651.595 -43.5023 649.848C-45.2831 648.1 -47.5727 647.351 -49.8623 647.351M115.752 599.173C113.462 599.173 111.173 600.171 109.392 601.669C107.611 603.416 106.848 605.663 106.848 607.91C106.848 610.156 107.866 612.403 109.392 614.15C111.173 615.898 113.462 616.647 115.752 616.647M115.752 616.896C118.042 616.896 120.331 615.898 122.112 614.4C123.893 612.653 124.656 610.406 124.656 608.159C124.656 605.913 123.638 603.666 122.112 601.919C120.331 600.171 118.042 599.422 115.752 599.422M-155.947 871.769C-158.237 871.769 -160.526 872.768 -162.307 874.265C-164.088 876.013 -164.851 878.259 -164.851 880.506C-164.851 882.753 -163.834 885 -162.307 886.747C-160.526 888.494 -158.237 889.243 -155.947 889.243M-155.947 889.493C-153.658 889.493 -151.368 888.494 -149.587 886.996C-147.806 885.249 -147.043 883.002 -147.043 880.756C-147.043 878.509 -148.061 876.262 -149.587 874.515C-151.368 872.768 -153.658 872.019 -155.947 872.019M142.973 853.796C140.683 853.796 138.394 854.545 136.867 856.292C136.104 857.041 135.341 858.039 134.832 859.038C134.323 860.036 134.069 861.035 134.069 862.283C133.814 864.53 134.578 866.776 136.104 868.524C137.63 870.271 139.666 871.27 141.955 871.519M168.413 811.608C166.123 811.608 163.834 812.607 162.053 814.104C160.272 815.852 159.509 818.099 159.509 820.345C159.509 822.592 160.526 824.839 162.053 826.586C163.834 828.333 166.123 829.082 168.413 829.082M168.413 829.082C170.702 829.082 172.992 828.084 174.773 826.586C176.554 824.839 177.317 822.592 177.317 820.345C177.317 818.099 176.299 815.852 174.773 814.104C172.992 812.357 170.702 811.608 168.413 811.608M141.955 871.27C142.21 871.27 142.718 871.27 142.973 871.27ZM142.973 871.519C145.262 871.519 147.552 870.521 149.333 869.023C151.114 867.276 151.877 865.029 151.877 862.782C151.877 860.536 150.859 858.289 149.333 856.542C147.552 854.794 145.262 854.045 142.973 854.045M30.0193 923.443C27.9841 923.443 25.9489 924.191 24.1681 925.44C22.6417 926.688 21.3697 928.685 21.1153 930.682C20.8609 932.679 21.1153 934.926 22.1329 936.673C23.1505 938.42 24.9313 939.918 26.9665 940.417M26.9665 940.667C27.9841 940.917 29.0017 941.166 30.0193 941.166ZM30.0193 941.166C32.3089 941.166 34.5985 940.168 36.3793 938.67C38.1601 936.923 38.9233 934.676 38.9233 932.429C38.9233 930.183 37.9057 927.936 36.3793 926.188C34.5985 924.441 32.3089 923.692 30.0193 923.692M282.384 788.143C280.094 788.143 277.805 789.141 276.024 790.639C274.243 792.387 273.48 794.633 273.48 796.88C273.48 799.127 274.498 801.373 276.024 803.121C277.805 804.868 280.094 805.617 282.384 805.617M282.384 805.617C284.674 805.617 286.963 804.618 288.744 803.121C290.525 801.373 291.288 799.127 291.288 796.88C291.288 794.633 290.27 792.387 288.744 790.639C286.963 788.892 284.674 788.143 282.384 788.143M247.277 1170.83C244.987 1170.83 242.698 1171.82 240.917 1173.32C239.136 1175.07 238.373 1177.32 238.373 1179.56C238.373 1181.81 239.39 1184.06 240.917 1185.8C242.698 1187.55 244.987 1188.3 247.277 1188.3M247.277 1188.55C249.566 1188.55 251.856 1187.55 253.637 1186.05C255.418 1184.31 256.181 1182.06 256.181 1179.81C256.181 1177.57 255.163 1175.32 253.637 1173.57C251.856 1171.82 249.566 1171.08 247.277 1171.08M216.24 930.183C213.95 930.183 211.661 931.181 209.88 932.679C208.099 934.426 207.336 936.673 207.336 938.92C207.336 941.166 208.354 943.413 209.88 945.16C211.661 946.908 213.95 947.657 216.24 947.657M216.24 947.657C218.53 947.657 220.819 946.658 222.6 945.16C224.381 943.413 225.144 941.166 225.144 938.92C225.144 936.673 224.126 934.426 222.6 932.679C220.819 930.931 218.53 930.183 216.24 930.183M359.467 1026.54C357.178 1026.54 354.888 1027.54 353.107 1029.04C351.326 1030.78 350.563 1033.03 350.563 1035.28C350.563 1037.52 351.581 1039.77 353.107 1041.52C354.888 1043.27 357.178 1044.01 359.467 1044.01M359.467 1044.01C361.757 1044.01 364.046 1043.02 365.827 1041.52C367.608 1039.77 368.371 1037.52 368.371 1035.28C368.371 1033.03 367.354 1030.78 365.827 1029.04C364.046 1027.29 361.757 1026.54 359.467 1026.54M159.254 1061.74C156.965 1061.74 154.675 1062.74 152.894 1064.23C151.114 1065.98 150.35 1068.23 150.35 1070.47C150.35 1072.72 151.368 1074.97 152.894 1076.72C154.675 1078.46 156.965 1079.21 159.254 1079.21M159.254 1079.46C161.544 1079.46 163.834 1078.46 165.614 1076.97C167.395 1075.22 168.158 1072.97 168.158 1070.72C168.158 1068.48 167.141 1066.23 165.614 1064.48C163.834 1062.74 161.544 1061.99 159.254 1061.99M468.859 850.051C466.57 850.051 464.28 851.05 462.499 852.548C460.718 854.295 459.955 856.542 459.955 858.788C459.955 861.035 460.973 863.282 462.499 865.029C464.28 866.776 466.57 867.525 468.859 867.525M468.859 867.525C471.149 867.525 473.438 866.527 475.219 865.029C477 863.282 477.763 861.035 477.763 858.788C477.763 856.542 476.746 854.295 475.219 852.548C473.438 850.8 471.149 850.051 468.859 850.051M434.261 756.689C431.971 756.689 429.682 757.688 427.901 759.186C426.12 760.933 425.357 763.18 425.357 765.427C425.357 767.673 426.374 769.92 427.901 771.667C429.682 773.415 431.971 774.164 434.261 774.164M434.261 774.413C436.55 774.413 438.84 773.415 440.621 771.917C442.402 770.169 443.165 767.923 443.165 765.676C443.165 763.429 442.147 761.183 440.621 759.435C438.84 757.688 436.55 756.939 434.261 756.939M398.899 898.729C396.61 898.729 394.32 899.728 392.539 901.225C390.758 902.973 389.995 905.22 389.995 907.466C389.995 909.713 391.013 911.96 392.539 913.707C394.32 915.454 396.61 916.203 398.899 916.203M398.899 916.453C401.189 916.453 403.478 915.454 405.259 913.957C407.04 912.209 407.803 909.963 407.803 907.716C407.803 905.469 406.786 903.223 405.259 901.475C403.478 899.728 401.189 898.979 398.899 898.979M434.77 1030.03C432.48 1030.03 430.19 1031.03 428.41 1032.53C426.629 1034.28 425.866 1036.53 425.866 1038.77C425.866 1041.02 426.883 1043.27 428.41 1045.01C430.19 1046.76 432.48 1047.51 434.77 1047.51M671.87 690.288C669.581 690.288 667.291 691.286 665.51 692.784C663.73 694.531 662.966 696.778 662.966 699.025C662.966 701.271 663.984 703.518 665.51 705.266C667.291 707.013 669.581 707.762 671.87 707.762" fill="url(#paint3_radial_912_497)"/>
</g>
</g>
<defs>
<linearGradient id="paint0_linear_912_497" x1="1455.71" y1="639.364" x2="1455.71" y2="-134.915" gradientUnits="userSpaceOnUse">
<stop stop-color="#2B3242"/>
<stop offset="0.4334" stop-color="#292F3E" stop-opacity="0.6533"/>
<stop offset="0.8292" stop-color="#222733" stop-opacity="0.3366"/>
<stop offset="1" stop-color="#1D212C" stop-opacity="0.2"/>
</linearGradient>
<radialGradient id="paint1_radial_912_497" cx="0" cy="0" r="1" gradientUnits="userSpaceOnUse" gradientTransform="translate(952.438 1005) scale(848.708 832.796)">
<stop offset="0.3372" stop-color="#8CC541" stop-opacity="0.48"/>
<stop offset="0.8258" stop-color="#304F00" stop-opacity="0.19"/>
</radialGradient>
<radialGradient id="paint2_radial_912_497" cx="0" cy="0" r="1" gradientUnits="userSpaceOnUse" gradientTransform="translate(952.429 1005) scale(987.201 968.693)">
<stop offset="0.3372" stop-color="#8CC541"/>
<stop offset="0.7736" stop-color="#304F00" stop-opacity="0.21"/>
<stop offset="0.8258" stop-color="#304F00" stop-opacity="0"/>
</radialGradient>
<radialGradient id="paint3_radial_912_497" cx="0" cy="0" r="1" gradientUnits="userSpaceOnUse" gradientTransform="translate(952.438 958.783) scale(1151.35 1129.76)">
<stop stop-color="#D4D4D5"/>
<stop offset="0.2987" stop-color="#8CC541"/>
<stop offset="1" stop-color="#304F00"/>
</radialGradient>
</defs>
</svg>
