<svg width="357" height="113" viewBox="0 0 357 113" fill="none" xmlns="http://www.w3.org/2000/svg">
<path d="M74.2806 62.3602C73.3155 62.247 72.2937 62.0771 71.3286 62.0771C67.6385 62.0205 63.9484 62.0771 60.2583 62.0205C57.9307 61.9639 57.4766 61.4544 58.1578 59.2464C60.4854 51.9433 62.8698 44.6967 65.1974 37.4501C65.8218 35.5819 67.014 34.6761 68.9442 34.6761C80.2983 34.6761 91.6524 34.6195 103.006 34.6761C105.504 34.6761 106.299 35.5253 106.867 38.2993C108.684 47.3575 107.945 56.3591 105.334 65.1343C101.985 76.3438 96.3076 86.3078 87.792 94.4602C77.0056 104.82 64.3458 111.501 49.0745 112.577C35.2793 113.482 23.244 109.293 13.4227 99.7253C6.55347 93.0448 2.63631 84.5528 0.933196 75.0983C-1.5647 61.1147 1.04674 47.9803 7.63211 35.4687C14.0472 23.2401 23.3008 13.8988 35.4496 7.27501C43.9084 2.63269 52.9349 0.311523 62.4156 0.311523C69.8525 0.311523 77.0624 2.00994 83.6477 5.63322C86.8269 7.38824 87.054 8.40729 84.6128 10.9549C72.691 23.4665 60.7125 35.9216 48.7907 48.4332C41.9782 55.5099 35.2226 62.6433 28.4669 69.7766C27.8992 70.3993 27.6721 71.3618 27.2747 72.1544C28.1262 72.4374 28.9778 73.0036 29.8294 73.0602C33.633 73.1734 37.3798 73.1168 41.1835 73.1168C42.2053 73.1168 43.1704 73.2866 44.7032 73.3999C42.035 82.911 39.4236 92.0258 36.8121 101.197C37.096 101.367 37.3798 101.537 37.6637 101.707C38.5152 101.084 39.4236 100.574 40.1616 99.8385C51.1183 88.3459 62.075 76.9099 72.9749 65.3607C73.5994 64.6814 74.0535 63.8888 74.6212 63.2094C74.5077 62.8697 74.3942 62.5866 74.2806 62.3602Z" fill="#20ECC7"/>
<path d="M331.11 34.676C334.8 34.676 338.49 34.5627 342.181 34.676C350.469 35.0157 355.749 40.5638 356.033 48.8294C356.316 57.1516 353.648 64.0585 346.609 68.8707C344.906 70.0596 345.019 71.4749 345.36 73.0601C346.665 79.231 347.971 85.4019 349.22 91.6294C349.901 94.8564 349.39 95.5357 346.098 95.649C342.521 95.7056 338.888 95.7056 335.311 95.5924C332.416 95.5357 331.678 94.7431 331.337 91.9125C330.713 87.0437 330.202 82.1749 329.521 77.3061C329.35 75.9474 329.805 73.8527 327.704 73.6828C325.49 73.513 325.831 75.7209 325.547 77.023C324.468 82.1749 323.503 87.3834 322.595 92.5918C322.197 94.7431 321.062 95.7056 318.905 95.649C315.385 95.5923 311.922 95.7056 308.402 95.649C305.28 95.5923 304.826 95.0262 305.45 91.7992C307.494 81.1559 309.594 70.5125 311.695 59.8691C313.114 52.6791 314.533 45.4326 315.953 38.2426C316.577 35.0723 317.031 34.7326 320.324 34.676C323.957 34.5627 327.534 34.6194 331.11 34.676C331.11 34.6194 331.11 34.6194 331.11 34.676ZM338.093 52.7924C338.15 50.4712 337.298 49.3389 335.198 49.0559C331.905 48.6029 331.054 49.1125 330.486 51.8865C330.145 53.6416 329.918 55.3966 329.521 57.1516C329.18 58.7934 329.918 59.3596 331.451 59.4728C335.482 59.7559 337.98 57.2648 338.093 52.7924Z" fill="#20ECC7"/>
<path d="M127.929 81.0427C129.462 81.2125 130.654 81.4389 131.846 81.4389C136.842 81.4956 141.894 81.4389 146.89 81.4956C149.729 81.5522 150.24 82.1749 149.729 84.949C149.275 87.3834 148.764 89.7612 148.253 92.1389C147.628 95.1961 147.231 95.5924 144.108 95.5924C133.209 95.649 122.365 95.649 111.465 95.5924C108.4 95.5924 107.775 94.8564 108.343 91.7426C109.365 86.1945 110.557 80.6464 111.636 75.0982C114.077 62.813 116.461 50.4712 118.902 38.1861C119.584 34.8458 119.868 34.6194 123.217 34.6194C133.265 34.6194 143.257 34.6194 153.305 34.6194C156.598 34.6194 157.109 35.2988 156.541 38.5257C156.087 40.9601 155.633 43.3379 155.122 45.7723C154.611 48.3765 154.043 48.9427 151.375 48.9993C146.833 49.0559 142.292 48.9427 137.75 49.0559C136.558 49.1125 134.571 49.339 134.287 50.0183C133.492 51.7733 133.379 53.8114 133.209 55.7363C133.209 56.0194 134.685 56.6421 135.479 56.6987C139.453 56.812 143.427 56.7554 147.401 56.7554C150.921 56.812 151.432 57.3781 150.751 60.7749C150.296 63.0961 149.842 65.4173 149.388 67.7384C148.764 70.6823 148.31 71.1352 145.187 71.1352C141.043 71.1919 136.842 71.2485 132.698 71.1352C130.427 71.0786 129.405 71.9844 129.121 74.1358C128.78 76.2871 128.383 78.3818 127.929 81.0427Z" fill="#20ECC7"/>
<path d="M277.633 95.6491C272.239 95.6491 266.846 95.7057 261.453 95.6491C258.217 95.6491 257.593 94.9131 258.217 91.6861C261.737 73.6263 265.313 55.6232 268.833 37.62C269.231 35.6385 270.139 34.6195 272.239 34.6761C282.742 34.7327 293.244 34.6761 303.69 34.6761C306.245 34.6761 306.869 35.4687 306.415 38.0163C305.961 40.6205 305.45 43.2247 304.882 45.7724C304.371 48.3766 303.747 48.9427 301.079 48.9993C296.367 49.056 291.598 48.9427 286.886 49.056C285.808 49.056 283.991 49.4523 283.764 50.1316C283.139 51.9433 283.026 53.9814 283.026 55.9062C283.026 56.1893 284.559 56.6988 285.41 56.6988C289.384 56.812 293.358 56.6988 297.332 56.7554C300.625 56.812 300.965 57.2649 300.454 60.4353C300 62.9263 299.603 65.4739 299.092 67.9649C298.581 70.6258 298.013 71.1353 295.345 71.1919C290.974 71.2485 286.659 71.3052 282.288 71.1919C280.13 71.1353 279.165 72.0411 278.882 74.0792C278.654 75.5512 278.314 77.0231 278.087 78.5517C277.689 81.2126 277.916 81.4956 280.641 81.4956C285.864 81.5522 291.03 81.4956 296.253 81.5522C299.603 81.5522 300 82.1184 299.376 85.4586C298.921 87.8364 298.354 90.2708 297.956 92.6485C297.616 94.7999 296.424 95.7057 294.266 95.6491C288.816 95.5925 283.253 95.5925 277.633 95.6491Z" fill="#20ECC7"/>
<path d="M240.675 33.9965C245.444 33.8833 250.042 34.4494 254.357 36.2611C257.99 37.7896 258.501 38.9785 257.252 42.5452C256.741 43.9605 256.23 45.3759 255.719 46.7912C254.527 50.0182 253.676 50.4145 250.156 49.9616C246.522 49.5087 242.832 49.2822 239.142 48.9991C238.404 48.9425 237.496 48.8293 236.928 49.169C235.906 49.8484 234.544 50.6976 234.317 51.7166C234.09 52.8489 234.601 54.6039 235.452 55.3965C236.644 56.5288 238.404 57.0383 239.937 57.6611C242.094 58.5669 244.422 59.1896 246.522 60.2653C251.291 62.6431 254.527 66.2663 254.697 71.8711C254.924 78.8346 254.016 85.6282 247.942 90.1573C245.046 92.3087 241.583 94.0071 238.12 94.9695C229.548 97.2907 220.919 97.2341 212.46 94.1769C207.975 92.5351 207.464 91.4595 209.111 87.0436C209.678 85.4584 210.303 83.8732 210.927 82.288C211.722 80.3066 213.141 79.6272 215.185 79.9669C218.818 80.4764 222.509 80.9859 226.142 81.3256C228.129 81.4954 230.116 81.5521 232.046 81.269C234.43 80.9293 236.077 79.0611 236.247 76.9097C236.361 74.6452 234.884 73.5695 233.068 72.7769C229.605 71.2484 226.085 69.8896 222.736 68.1912C217.853 65.7002 215.469 61.5108 215.526 56.0193C215.526 54.2076 215.469 52.396 215.81 50.6409C217.002 43.5642 220.862 38.6388 227.731 36.0912C231.989 34.6193 236.304 33.7701 240.675 33.9965Z" fill="#20ECC7"/>
<path d="M184.643 59.0199C185.21 58.1141 185.835 57.2083 186.346 56.2458C189.752 50.1882 193.215 44.0739 196.564 37.9596C197.87 35.5252 199.744 34.3929 202.525 34.4495C206.102 34.5061 209.735 34.3929 213.312 34.5061C216.321 34.5628 216.718 35.3554 215.015 37.8464C208.486 47.5273 202.128 57.3781 195.202 66.8326C190.774 72.8336 188.219 79.1744 187.424 86.4776C187.197 88.5157 186.63 90.5537 186.289 92.5918C186.005 94.7998 184.699 95.649 182.599 95.5924C179.022 95.5358 175.389 95.649 171.813 95.5924C169.144 95.5358 168.633 94.8564 169.088 92.2522C169.939 87.6098 171.018 83.0241 171.699 78.3818C171.983 76.5135 171.983 74.4188 171.529 72.6072C168.747 61.4543 165.795 50.358 162.9 39.2051C161.878 35.2421 162.332 34.5628 166.533 34.5061C169.542 34.4495 172.607 34.4495 175.616 34.5061C178.682 34.5628 179.477 35.1855 180.044 38.1294C181.18 44.3569 182.258 50.5278 183.337 56.7553C183.45 57.4347 183.678 58.1141 183.848 58.8501C184.132 58.9633 184.416 59.0199 184.643 59.0199Z" fill="#20ECC7"/>
</svg>
