<svg width="50" height="50" viewBox="0 0 50 50" fill="none" xmlns="http://www.w3.org/2000/svg">
<path d="M25 3.125C12.9199 3.125 3.125 13.1738 3.125 25.5566C3.125 35.4688 9.39453 43.8672 18.0859 46.8359C18.2078 46.8624 18.3323 46.8755 18.457 46.875C19.2676 46.875 19.5801 46.2793 19.5801 45.7617C19.5801 45.2246 19.5605 43.8184 19.5508 41.9434C18.8272 42.113 18.0869 42.2014 17.3438 42.207C13.1348 42.207 12.1777 38.9355 12.1777 38.9355C11.1816 36.3477 9.74609 35.6543 9.74609 35.6543C7.8418 34.3164 9.73633 34.2773 9.88281 34.2773H9.89258C12.0898 34.4727 13.2422 36.6016 13.2422 36.6016C14.3359 38.5156 15.8008 39.0527 17.1094 39.0527C17.9746 39.0354 18.8265 38.8358 19.6094 38.4668C19.8047 37.0215 20.3711 36.0352 20.9961 35.4688C16.1426 34.9023 11.0352 32.9785 11.0352 24.3848C11.0352 21.9336 11.8848 19.9316 13.2812 18.3691C13.0566 17.8027 12.3047 15.5176 13.4961 12.4316C13.6559 12.3934 13.8202 12.377 13.9844 12.3828C14.7754 12.3828 16.5625 12.6855 19.5117 14.7363C23.0953 13.7337 26.8852 13.7337 30.4688 14.7363C33.418 12.6855 35.2051 12.3828 35.9961 12.3828C36.1603 12.377 36.3246 12.3934 36.4844 12.4316C37.6758 15.5176 36.9238 17.8027 36.6992 18.3691C38.0957 19.9414 38.9453 21.9434 38.9453 24.3848C38.9453 32.998 33.8281 34.8926 28.9551 35.4492C29.7363 36.1426 30.4395 37.5098 30.4395 39.5996C30.4395 42.5977 30.4102 45.0195 30.4102 45.752C30.4102 46.2793 30.7129 46.875 31.5234 46.875C31.6546 46.8756 31.7856 46.8625 31.9141 46.8359C40.6152 43.8672 46.875 35.459 46.875 25.5566C46.875 13.1738 37.0801 3.125 25 3.125Z" fill="#8CC541"/>
</svg>
