<?xml version="1.0" encoding="utf-8"?>
<!-- Generator: Adobe Illustrator 23.0.6, SVG Export Plug-In . SVG Version: 6.00 Build 0)  -->
<svg version="1.1" id="Layer_1" xmlns="http://www.w3.org/2000/svg" xmlns:xlink="http://www.w3.org/1999/xlink" x="0px" y="0px"
	 viewBox="0 0 3000 987.6" style="enable-background:new 0 0 3000 987.6;" xml:space="preserve">
<style type="text/css">
	.st0{fill:#E12991;}
	.st1{fill:#FFFFFF;}
</style>
<g>
	<g>
		<path class="st0" d="M1137.1,103.9v361.2V516v361.4h-51.4V516H132.1v361.4H80.6V516v-50.9V103.9h51.4v361.2h953.6V103.9H1137.1z
			 M1034.3,103.9h-51.4v258.2H234.9V103.9h-51.4v309h850.8L1034.3,103.9L1034.3,103.9z M338,103.9h-50.9v205.8H338V103.9z
			 M931.1,103.9h-51.4v205.8h51.4V103.9z M183.5,877.3h51.4V619.2h747.9v258.2h51.4V567.7H183.5V877.3z M879.2,877.3h51.4V670.9
			h-51.4V877.3z M286.8,877.3h51.4V670.9h-51.4V877.3z"/>
	</g>
	<g>
		<path class="st1" d="M1422.9,103.9v227.4h-44.5v-94.2h-92.2v94.2h-44.8V103.9h44.8v90.3h92.2v-90.3H1422.9z"/>
		<path class="st1" d="M1605.8,168.9v162.4h-41.9v-18.2c-9.8,14.6-26.6,22.7-48.4,22.7c-34.4,0-61.4-24-61.4-67.3v-99.7h41.9v94.5
			c0,22.1,13.3,33.5,32.2,33.5c20.5,0,35.7-12,35.7-40.3v-87.7L1605.8,168.9L1605.8,168.9z"/>
		<path class="st1" d="M1885.2,231.2v100.1h-41.9v-97.1c0-19.2-9.8-30.9-27.3-30.9c-18.5,0-30.2,12.4-30.2,36.7v91.3h-41.9v-97.1
			c0-19.2-9.8-30.9-27.3-30.9c-17.9,0-30.5,12.4-30.5,36.7v91.3h-41.9V168.9h41.9v17.2c9.1-13.6,24.4-21.8,45.2-21.8
			c20.1,0,35.1,8.4,44.2,23.4c10.1-14.6,26.3-23.4,48.4-23.4C1860.8,164.3,1885.2,190.6,1885.2,231.2z"/>
		<path class="st1" d="M2086.2,168.9v162.4h-41.9v-19.2c-11.7,14.6-29.2,23.7-53,23.7c-43.2,0-78.9-37.4-78.9-85.8
			s35.7-85.8,78.9-85.8c23.7,0,41.3,9.1,53,23.7v-19.2L2086.2,168.9L2086.2,168.9z M2044.3,250.1c0-27.3-19.2-45.8-45.2-45.8
			c-25.7,0-44.8,18.5-44.8,45.8s19.2,45.8,44.8,45.8C2025.2,295.9,2044.3,277.4,2044.3,250.1z"/>
		<path class="st1" d="M2275.9,231.6v99.7H2234v-94.5c0-22.1-13.3-33.5-32.2-33.5c-20.5,0-35.7,12-35.7,40.3v87.7h-41.9V168.9h41.9
			V187c9.8-14.6,26.6-22.7,48.4-22.7C2249,164.3,2275.9,188.4,2275.9,231.6z"/>
		<path class="st1" d="M1316.5,525.4h-30.3v79h-44.8V376.9h94.8c41.9,0,75.7,33.8,75.7,75.4c0,28.6-17.9,54.3-43.9,66.3l50.4,85.8
			H1370L1316.5,525.4z M1286.2,486h50c16.9,0,30.9-15,30.9-33.8s-14-33.5-30.9-33.5h-50V486z"/>
		<path class="st1" d="M1437.9,396.7c0-14,15.6-26,29.5-26c14.3,0,22.1,12,22.1,26s-11.7,25.7-26,25.7
			C1449.6,422.4,1437.9,410.7,1437.9,396.7z M1442.8,441.9h41.9v162.5h-41.9V441.9z"/>
		<path class="st1" d="M1681.9,441.9v154.7c0,53.3-41.9,77.3-84.8,77.3c-34.8,0-62.7-13.3-77-39.6l35.7-20.5
			c6.8,12.7,17.5,22.7,42.6,22.7c26.3,0,42.6-14.3,42.6-40V579c-11.4,15.3-28.9,24.7-52,24.7c-46.1,0-80.9-37.4-80.9-83.2
			c0-45.5,34.8-83.2,80.9-83.2c23.1,0,40.6,9.4,52,24.7v-20.1L1681.9,441.9L1681.9,441.9z M1640.9,520.5c0-25.7-19.2-44.2-45.5-44.2
			c-26.3,0-45.5,18.5-45.5,44.2c0,26,19.2,44.5,45.5,44.5C1621.8,565,1640.9,546.5,1640.9,520.5z"/>
		<path class="st1" d="M1871.6,504.6v99.7h-41.9v-94.5c0-22.1-13.3-33.5-32.2-33.5c-20.5,0-35.7,12-35.7,40.3v87.7h-41.9V376.9h41.9
			v83.2c9.8-14.6,26.6-22.7,48.4-22.7C1844.6,437.3,1871.6,461.4,1871.6,504.6z"/>
		<path class="st1" d="M1963.5,482.1v67.6c0,17.5,12.7,17.9,36.7,16.6v38c-58.8,6.5-78.6-10.7-78.6-54.6v-67.6h-28.3v-40.3h28.3V409
			l41.9-12.7v45.5h36.7v40.3L1963.5,482.1L1963.5,482.1z"/>
		<path class="st1" d="M2148.6,556.9c0,35.1-30.5,52-65.3,52c-32.5,0-56.5-13.6-68.2-38.7l36.4-20.5c4.6,13.3,15.6,21.1,31.8,21.1
			c13.3,0,22.4-4.5,22.4-14c0-23.7-83.8-10.7-83.8-67.9c0-33.1,28.3-51.7,61.7-51.7c26.3,0,49.1,12,61.7,34.4l-35.7,19.5
			c-4.9-10.4-14-16.6-26-16.6c-10.4,0-18.8,4.5-18.8,13.3C2064.8,512,2148.6,497.1,2148.6,556.9z"/>
		<path class="st1" d="M1286.2,692.8v53.9h96.1v42.9h-96.1v87.7h-44.8V649.9h143.5v42.9L1286.2,692.8L1286.2,692.8z"/>
		<path class="st1" d="M1400.8,796.1c0-48.4,38-85.8,85.8-85.8s86.1,37.4,86.1,85.8c0,48.4-38.3,85.8-86.1,85.8
			S1400.8,844.5,1400.8,796.1z M1530.8,796.1c0-26.3-19.2-44.8-44.2-44.8c-24.7,0-43.9,18.5-43.9,44.8c0,26.3,19.2,44.8,43.9,44.8
			C1511.6,840.9,1530.8,822.4,1530.8,796.1z"/>
		<path class="st1" d="M1744.8,714.9v162.5h-41.9v-18.2c-9.8,14.6-26.6,22.7-48.4,22.7c-34.4,0-61.4-24-61.4-67.3v-99.7h41.9v94.5
			c0,22.1,13.3,33.5,32.2,33.5c20.5,0,35.7-12,35.7-40.3v-87.7L1744.8,714.9L1744.8,714.9z"/>
		<path class="st1" d="M1934.9,777.6v99.7h-41.9v-94.5c0-22.1-13.3-33.5-32.2-33.5c-20.5,0-35.7,12-35.7,40.3v87.7h-41.9V714.9h41.9
			v18.2c9.8-14.6,26.6-22.7,48.4-22.7C1907.9,710.3,1934.9,734.4,1934.9,777.6z"/>
		<path class="st1" d="M2135.6,649.9v227.4h-41.9v-19.2c-11.7,15-28.9,23.7-52.6,23.7c-43.5,0-79.3-37.4-79.3-85.8
			c0-48.4,35.7-85.8,79.3-85.8c23.7,0,40.9,8.8,52.6,23.7v-84.1H2135.6z M2093.7,796.1c0-27.3-19.2-45.8-44.8-45.8
			c-26,0-45.2,18.5-45.2,45.8s19.2,45.8,45.2,45.8C2074.5,841.9,2093.7,823.4,2093.7,796.1z"/>
		<path class="st1" d="M2337.4,714.9v162.5h-41.9v-19.2c-11.7,14.6-29.2,23.7-53,23.7c-43.2,0-78.9-37.4-78.9-85.8
			c0-48.4,35.7-85.8,78.9-85.8c23.7,0,41.3,9.1,53,23.7v-19.2L2337.4,714.9L2337.4,714.9z M2295.4,796.1c0-27.3-19.2-45.8-45.2-45.8
			c-25.7,0-44.8,18.5-44.8,45.8s19.2,45.8,44.8,45.8C2276.3,841.9,2295.4,823.4,2295.4,796.1z"/>
		<path class="st1" d="M2433.5,755.2v67.6c0,17.5,12.7,17.9,36.7,16.6v38c-58.8,6.5-78.6-10.7-78.6-54.6v-67.6h-28.3v-40.3h28.3
			v-32.8l41.9-12.7v45.5h36.7v40.3H2433.5z"/>
		<path class="st1" d="M2494.8,669.7c0-14,11.7-26,25.7-26c14.3,0,26,12,26,26s-11.7,25.7-26,25.7
			C2506.5,695.4,2494.8,683.7,2494.8,669.7z M2499.7,714.9h41.9v162.5h-41.9V714.9z"/>
		<path class="st1" d="M2565,796.1c0-48.4,38-85.8,85.8-85.8s86.1,37.4,86.1,85.8c0,48.4-38.3,85.8-86.1,85.8S2565,844.5,2565,796.1
			z M2695,796.1c0-26.3-19.2-44.8-44.2-44.8c-24.7,0-43.9,18.5-43.9,44.8c0,26.3,19.2,44.8,43.9,44.8
			C2675.8,840.9,2695,822.4,2695,796.1z"/>
		<path class="st1" d="M2911.6,777.6v99.7h-41.9v-94.5c0-22.1-13.3-33.5-32.2-33.5c-20.5,0-35.7,12-35.7,40.3v87.7h-41.9V714.9h41.9
			v18.2c9.8-14.6,26.6-22.7,48.4-22.7C2884.7,710.3,2911.6,734.4,2911.6,777.6z"/>
	</g>
</g>
</svg>
