<?xml version="1.0" encoding="utf-8"?>
<!-- Generator: Adobe Illustrator 16.0.0, SVG Export Plug-In . SVG Version: 6.00 Build 0)  -->
<!DOCTYPE svg PUBLIC "-//W3C//DTD SVG 1.1//EN" "http://www.w3.org/Graphics/SVG/1.1/DTD/svg11.dtd">
<svg version="1.1" id="Layer_1" xmlns="http://www.w3.org/2000/svg" xmlns:xlink="http://www.w3.org/1999/xlink" x="0px" y="0px"
	 width="1077.178px" height="445.977px" viewBox="0 0 1077.178 445.977" enable-background="new 0 0 1077.178 445.977"
	 xml:space="preserve">
<g>
	<g>
		<path fill="#FFFFFF" d="M106.755,71.413c-3.302,1.082-5.245,5.802-6.431,9.403c-1.198,3.64-2.849,12.56,0.451,15.982
			c3.275,3.397,7.697-4.176,8.685-13.925C109.699,80.503,110.484,70.19,106.755,71.413z"/>
		<path fill="#FFFFFF" d="M177.276,94.196c-3.937,0.17-9.493,14.557-5.067,17.328c2.448,1.534,4.855-1.457,5.991-5.553
			C180.104,99.101,178.537,94.142,177.276,94.196z"/>
	</g>
	<g>
		<path fill="#F5CC23" d="M160.744,102.995c-4.823,3.576-15.829,11.369-27.979,18.834c4.33,0.442,8.388,0.73,11.782,0.857
			c10.736,0.395,23.58,1.038,31.771-7.199c5.028-5.062,6.23-17.314,5.234-28.739C174.757,92.701,167.874,97.701,160.744,102.995z
			 M178.2,105.97c-1.136,4.097-3.542,7.087-5.991,5.553c-4.426-2.771,1.13-17.157,5.067-17.328
			C178.537,94.142,180.104,99.101,178.2,105.97z"/>
		<path fill="#F5CC23" d="M110.58,61.093c-2.758-1.59-6.758-0.421-9.852,2.671c-12.686,12.665-18.405,29.061-21.396,46.208
			c-0.517,2.944-1.449,9.264-1.52,16.729c-0.02,1.91-0.112,6.253,1.165,11.42c0.4,1.637,1.167,3.384,2.132,5.131
			c1.659,3.003,4.9,5,7.667,4.43c3.874-0.794,7.527-4.331,10.317-10.076c4.608-9.492,8.742-20.803,11.033-31.944
			c1.951-9.514,3.672-15.889,4.186-27.893C114.429,74.966,114.419,63.305,110.58,61.093z M109.459,82.873
			c-0.988,9.75-5.409,17.322-8.685,13.925c-3.3-3.423-1.649-12.343-0.451-15.982c1.187-3.602,3.129-8.322,6.431-9.403
			C110.484,70.19,109.699,80.503,109.459,82.873z"/>
	</g>
	<g>
		<path fill="#8DC63F" d="M381.433,110.323l-39.857,182.892l-8.857,51.957h-5.45l8.857-51.957l23.165-182.892h-75.214
			c0.235,0.966,0.586,2.177,1.13,3.658c0.357,0.962,0.825,2.011,1.444,3.128c0.753,1.365,2.022,3.259,3.562,5.09
			c-1.096,1.428-2.34,2.856-2.569,3.129c-0.397,0.48-0.805,0.95-1.213,1.417c-5.617,6.414-12.136,11.503-19.278,14.274
			l-4.173,24.306c4.418,1.113,12.236,3.693,13.5,7.55c3.01,9.184-6.35,21.25-8.523,23.905c-4.542,5.548-8.974,11.289-13.322,17.16
			l-32.97,192.057h49.055l35.087-202.746l3.747-24.921h5.451l-4.088,24.921l-23.164,202.746h61.658l46.67-202.746l4.088-24.921
			h5.451l-4.089,24.921l-35.087,202.746h49.054l50.757-295.675H381.433z"/>
		<path fill="#8DC63F" d="M541.187,105.255c-34.741,0-62.333,26.188-69.146,65.894l-29.978,174.023
			c-6.473,39.705,11.922,65.893,46.67,65.893c34.747,0,62.334-26.188,69.147-65.893l29.637-174.023
			C594.668,131.442,575.934,105.255,541.187,105.255z M538.463,171.148l-29.632,174.023c-1.362,6.332-5.451,10.559-10.561,10.559
			c-5.45,0-8.176-4.227-7.154-10.559l29.978-174.023c1.021-6.335,5.451-10.56,10.56-10.56
			C536.761,160.588,539.826,164.813,538.463,171.148z"/>
		<path fill="#8DC63F" d="M645.762,199.449l5.109-29.145c1.021-5.915,4.771-9.716,9.539-9.716c5.109,0,7.494,3.801,6.814,9.716
			l-7.156,39.283h49.055l6.813-38.438c6.816-39.706-11.58-65.894-45.988-65.894c-34.404,0-61.316,26.188-68.469,65.894
			l-6.133,35.481c-11.582,67.997,53.484,73.913,48.031,105.169l-5.791,33.373c-1.02,6.332-5.451,10.559-10.561,10.559
			s-8.176-4.227-6.813-10.559l7.494-43.512h-49.053l-7.496,43.512c-6.813,39.705,11.584,65.893,46.33,65.893
			s62.34-26.188,69.15-65.893l7.156-40.975C705.379,236.615,640.653,230.283,645.762,199.449z"/>
		<polygon fill="#8DC63F" points="820.52,165.657 830.057,110.323 736.036,110.323 726.499,165.657 748.981,165.657 
			707.762,405.998 756.819,405.998 798.04,165.657 		"/>
		<path fill="#8DC63F" d="M947.583,170.726c6.131-36.326-10.902-60.403-42.924-60.403h-62.34l-50.758,295.675h49.055l18.736-108.98
			h7.834l-4.428,108.98h49.053l2.387-124.611c10.9-10.139,18.734-24.922,21.801-43.082L947.583,170.726z M897.504,176.217
			l-9.881,58.285c-1.02,6.756-5.449,10.98-10.559,10.98h-30.318l0.344-1.689l23.162-10.555l11.582-67.581h8.857
			C895.801,165.657,898.868,169.881,897.504,176.217z"/>
		<path fill="#8DC63F" d="M1029.34,105.255c-34.75,0-62.34,26.188-69.152,65.894l-29.98,174.023
			c-6.471,39.705,11.926,65.893,46.672,65.893c34.744,0,62.338-26.188,69.15-65.893l29.639-174.023
			C1082.823,131.442,1064.086,105.255,1029.34,105.255z M1026.612,171.148l-29.637,174.023c-1.363,6.332-5.447,10.559-10.559,10.559
			c-5.447,0-8.176-4.227-7.154-10.559l29.979-174.023c1.021-6.335,5.449-10.56,10.559-10.56S1027.977,164.813,1026.612,171.148z"/>
		<path fill="#8DC63F" d="M269.132,179.661c0.895-4.057-7.331-6.101-8.932-6.401c-2.842-0.536-5.693-1.001-8.56-1.399
			c-12.343-1.717-26.521-2.044-40.921-1.538c-2.131,4.559-4.226,9.068-5.185,11.29c-1.144,2.648-5.088,11.474-9.152,19.952
			c-4.05,8.44-6.963,15.089-7.494,14.696c-2.787-2.084,9.087-33.972,10.783-38.179c2.641-6.555,5.372-13.049,8.176-19.502
			c4.482-10.317,9.15-20.507,13.953-30.626c-0.449-0.333-0.908-0.669-1.386-1.009c-4.277-3.037-9.777-8.478-4.305-6.229
			c0.705,0.291,1.383,0.425,2.514,0.917c4.728,2.049,5.952,2.716,8.658,4.228c6.418,3.583,14.748,7.284,21.493,8.636
			c13.294,2.661,25.34-3.938,34.51-15.294c-0.657-1.274-1.256-2.574-1.769-3.683c-2.473-5.386-2.775-9.907-2.764-11.717
			c0.051-8.454,8.098-7.191,15.136-4.38c2.451-6.307,4.899-13.495,7.363-19.577c0.524-1.294,1.06-2.582,1.601-3.866
			c0.337-0.807,1.177-2.62,0.71-3.15c-0.392-0.445-2.019,0.289-2.531,0.559c-0.952,0.5-1.804,0.976-2.518,1.401
			c-4.962,2.96-10.958,6.432-16.014,9.166c-5.701,3.084-18.047,9.281-20.903,10.708c-12.103,6.058-24.554,12.871-37.803,11.857
			c-2.044-0.157-6.042-1.728-5.878-2.181c0.671-1.831,6.043-1.76,8.798-2.424c2.174-0.525,5.784-1.597,9.136-2.73
			c10.165-20.341,20.683-40.604,31.137-61.245c0.716-1.409,2.018-4.622,1.539-7.472c-0.398-2.354-3.726-4.667-5.022-5.27
			c-4.52-2.107-9.12-3.902-13.771-5.36c-11.347-3.553-22.937-5.24-34.561-6.691c-11.562-1.44-23.182-2.225-34.792-1.802
			c-23.818,0.875-47.795,5.214-70.41,13.734c-5.807,2.186-11.536,4.617-17.236,7.143c-1.737,0.766-7.349,3.419-10.453,8.065
			c-3.192,4.776-4.591,9.81-5.085,12.656c-5.492,31.727-10.02,63.218-13.274,94.447c-0.675,6.477-1.304,12.965-1.877,19.456
			c-0.036,1.026-0.116,2.015-0.258,2.949c-0.424,4.959-0.796,9.918-1.132,14.876c17.673-2.722,34.77-7.507,51.548-12.991
			c2.127-0.695,4.193-1.387,6.204-2.079c3.124-10.354,6.644-20.938,9.52-30.188c0.386-1.245,1.714-5.188,2.655-5
			c1.589,0.325,6.194,5.197,7.055,6.215c4.561,5.367,8.967,10.436,13.389,15.296c12.814-6.71,24.038-14.63,36.806-25.417
			c3.947-3.335,14.18-14.288,13.86-12.278c-0.134,0.837-2.007,4.485-4.658,7.983c-5.98,7.903-17.38,18.856-22.485,22.666
			c-1.738,1.297-3.522,2.645-5.4,4.007c-0.505,0.366-1.016,0.733-1.536,1.101c-0.191,0.135-0.386,0.27-0.579,0.405
			c-0.503,0.352-1.014,0.703-1.534,1.055c-0.198,0.134-0.397,0.269-0.599,0.402c-0.554,0.369-1.12,0.737-1.696,1.104
			c-0.174,0.111-0.345,0.223-0.521,0.334c-0.757,0.476-1.531,0.951-2.33,1.42c-3.135,1.841-6.319,3.584-9.534,5.258
			c-2.721-3.175-5.836-6.884-10.251-11.932c-0.901-1.024-5.119-5.644-6.771-7.55c-0.21-0.246-0.373-0.45-0.493-0.586
			c-0.167-0.187-0.284-0.121-0.409,0.107c-0.093,0.168-0.841,2.425-0.951,2.792c-2.724,9.329-5.646,19.225-8.195,28.962
			c-2.717,0.969-5.446,1.902-8.2,2.762c-3.439,1.072-6.901,2.147-10.382,3.21c-0.222,0.067-0.443,0.135-0.666,0.203
			c-3.542,1.079-7.105,2.144-10.69,3.173c-16.029,4.603-32.5,8.537-49.451,10.188c-0.704,0.067-2.189,0.336-2.449,1.245
			c-0.255,0.888,0.694,2.41,1.171,2.988c0.75,0.909,1.486,1.725,2.188,2.431c9.815,9.838,20.872,17.194,32.105,22.682
			c10.079,4.926,20.448,8.645,30.856,11.201c7.814,1.924,15.662,3.188,23.43,3.811c7.72,0.623,22.659,0.551,22.483,1.561
			c-0.375,2.16-8.809,4.75-24.832,5.053c-2.835,0.053-6.099-0.018-9.444-0.236c-2.931,24.074-5.28,48.041-7.058,71.818
			c-0.738,9.828-1.43,19.666-2.012,29.494c-1.336,22.703-2.063,45.32-1.339,67.543c0.084,2.514,0.179,5.02,0.302,7.518
			c0.124,2.551,0.545,10.145,2.113,11.297c2.145,1.574,7.219-10.287,8.434-12.701c4.668-9.262,9.464-18.416,14.238-27.502
			c14.137-26.893,28.846-53.52,44.429-79.318c8.837-14.637,18.122-28.848,27.289-43.168c13.077-20.443,26.316-40.771,40.364-60.018
			c4.587-6.288,9.327-12.629,14.225-18.853c1.376-1.745,6.463-8.241,7.515-10.42C268.712,181,268.989,180.293,269.132,179.661z
			 M218.669,114.246c8.716,1.362,16.637,0.258,25.155-0.184c10.66-0.555,23.018-3.266,22.745-0.834
			c-10.079,3.01-25.938,9.404-36.586,7.683C220.399,119.36,215.146,113.696,218.669,114.246z M115.111,117.214
			c-2.29,10.126-5.853,22.333-11.723,33.371c-3.244,6.093-10.535,13.87-17.834,12.52c-15.059-2.796-16.883-27.903-14.864-41.653
			c3.553-24.152,11.014-47.994,26.7-62.614c0.104-0.118,0.219-0.229,0.344-0.335c4.666-4.039,11.494-7.6,17.301-1.161
			c3.376,3.741,4.502,11.278,4.629,18.82C119.759,81.667,120.588,92.944,115.111,117.214z M196.1,69.333
			c-1.602,3.724-3.85,6.778-5.928,9.134c1.262,12.819,0.625,22.662-0.546,27.958c-1.339,6.052-3.775,11.426-8.452,15.425
			c-10.115,8.65-20.666,7.939-33.41,7.493c-4.392-0.151-16.667-2.7-25.825-4.687c-0.854-0.185-2.437-0.603-2.51-1.245
			c-0.053-0.509,1.243-1.243,1.755-1.517c0.762-0.403,1.518-0.808,2.267-1.218c15.782-8.641,29.481-18.843,35.168-23.098
			c7.049-5.268,14.4-11.273,21.633-17.824c3.031-2.743,6.439-5.871,9.499-8.632c4.968-4.487,6.549-5.302,6.961-4.654
			C196.891,66.747,196.688,67.972,196.1,69.333z"/>
		<path fill="#8DC63F" d="M57.373,133.252c-8.025-2.394-21.66-7.777-22.527-9.705c-1.068-1.886,10.765,2.276,16.054,3.445
			c2.409,0.589,4.75,1.065,6.964,1.459c0.112-1.06,0.212-1.967,0.295-2.685c0.173-1.489,0.349-3.004,0.526-4.535
			c-2.346-0.392-4.875-0.9-7.668-1.594c-17.797-4.421-31.421-9.56-39.782-12.868c-0.736-0.291-3.363-1.414-3.872-0.627
			c-0.437,0.677,0.907,2.992,1.308,3.655c0.956,1.573,1.793,2.96,2.447,4.059c3.419,5.732,6.894,11.207,11.808,15.185
			c8.92,7.221,20.366,9.994,29.478,7.289c1.656-0.491,3.264-1.097,4.84-1.777C57.288,134.108,57.331,133.675,57.373,133.252z"/>
	</g>
	<g>
		<path d="M276.48,172.876c-1.264-3.857-9.081-6.437-13.5-7.55c-1.034-0.26-1.883-0.441-2.417-0.539
			c-1.742-0.321-3.483-0.616-5.229-0.892c-13.433-2.113-27.017-2.518-40.7-1.949c0.67-1.439,1.237-2.665,1.63-3.534
			c3.892-8.597,7.926-17.125,12.051-25.619c0.743,0.506,1.51,1.005,2.337,1.497c6.508,3.875,12.989,7.641,19.927,8.682
			c5.79,0.87,11.347,0.076,16.574-1.952c7.142-2.771,13.661-7.86,19.278-14.274c0.408-0.467,0.815-0.937,1.213-1.417
			c0.229-0.273,1.473-1.702,2.569-3.129c-1.54-1.831-2.809-3.725-3.562-5.09c-0.619-1.117-1.086-2.166-1.444-3.128
			c-0.543-1.481-0.895-2.691-1.13-3.658c-0.163-0.668-0.271-1.223-0.343-1.656c-0.384-2.312-0.216-4.181,0.304-5.241
			c0.547-1.126,1.708-1.54,3.701-1.245c0.536,0.081,1.076,0.181,1.614,0.303c0.98,0.222,3.451,0.841,7.318,3.078
			c0.218,0.128,0.452,0.284,0.682,0.437c0.53-1.629,1.143-3.512,1.388-4.295c1.109-3.535,2.201-7.136,3.442-10.719
			c0.556-1.608,3.842-10.543,4.716-13.552c1.042-3.606,2.27-9.268,0.807-10.688c-1.267-1.236-5.866,0.573-8.255,1.525
			c-4.369,1.742-26.524,13.715-30.446,15.451c-5.67,2.515-14.116,7.022-21.277,10.491c4.862-9.408,9.783-18.816,14.734-28.261
			c4.411-8.418,8.81-16.896,13.173-25.458c1.129-2.215,3.735-8.169,2.445-13.555c-1.222-5.08-6.874-9.189-9.22-10.353
			c-2.055-1.018-4.125-1.976-6.2-2.888c-21.57-9.489-44.875-12.331-67.55-13.445c-23.839-1.173-47.568,1.79-70.665,8.167
			c-12.039,3.324-23.631,7.931-35.153,12.878c-2.304,0.99-5.046,1.767-9.913,5.218c-1.192,0.847-3.653,3.438-4.7,4.932
			c-0.94,1.34-1.921,2.788-2.6,4.38c-2.579,6.056-3.751,13.48-4.308,16.855c-3.173,19.372-5.99,42.162-8.367,62.397
			c-8.67-1.75-15.382-3.912-19.491-5.196c-11.92-3.718-22.76-7.231-28.011-9.004c-0.559-0.186-3.393-1.25-6.118-1.943
			c-3.559-0.905-4.451-0.926-5.344-0.02c-1.106,1.128,0.009,5.411,1.8,8.811c2.529,4.79,5.33,11.72,12.376,21.535
			c2.067,2.881,6.377,7.153,8.967,8.916c9.505,6.477,21.567,8.817,30.97,4.683c0.676-0.297,1.335-0.607,1.987-0.925
			c-1.192,12.843-2.622,29.943-3.281,42.467c-0.023,0.445-0.059,0.857-0.093,1.277c-3.633,0.43-7.289,0.778-10.975,1.01
			c-2.424,0.155-8.872,0.944-10.681,4.311c-2.089,3.889,1.531,9.77,3.288,11.898c1.269,1.532,2.568,2.993,3.861,4.381
			c10.086,10.819,21.74,18.655,33.474,24.829c11.151,5.865,22.162,9.098,33.819,11.971c2.141,0.527,4.514,0.945,6.974,1.271
			c-4.219,33.484-7.849,67.992-9.844,100.748c-0.296,4.799-0.55,9.572-0.77,14.293c-0.353,7.545-0.717,32.791-0.465,41.102
			c0.375,12.336,1.108,26.746,2.252,32.906c0.993,5.373,3.336,10.369,5.901,11.408c1.851,0.754,4.333-1.145,6.723-3.844
			c3.321-3.748,12.952-22.693,15.567-27.764c1.329-2.576,14.514-26.775,19.439-35.797c4.85-8.889,9.776-17.725,14.744-26.518
			c15.186-26.875,30.72-51.447,47.248-77.213c13.141-20.49,26.552-41.348,40.911-60.734c4.349-5.871,8.78-11.611,13.322-17.16
			C270.131,194.125,279.49,182.06,276.48,172.876z M52.404,136.331c-9.111,2.705-20.558-0.068-29.478-7.289
			c-4.915-3.978-8.389-9.453-11.808-15.185c-0.654-1.098-1.491-2.486-2.447-4.059c-0.401-0.663-1.745-2.978-1.308-3.655
			c0.508-0.787,3.135,0.337,3.872,0.627c8.361,3.308,21.985,8.446,39.782,12.868c2.793,0.694,5.322,1.202,7.668,1.594
			c-0.178,1.531-0.354,3.045-0.526,4.535c-0.083,0.717-0.183,1.625-0.295,2.685c-2.214-0.394-4.555-0.87-6.964-1.459
			c-5.289-1.169-17.122-5.331-16.054-3.445c0.867,1.928,14.502,7.312,22.527,9.705c-0.042,0.423-0.085,0.856-0.128,1.302
			C55.667,135.234,54.06,135.839,52.404,136.331z M246.626,210.987c-14.048,19.247-27.288,39.575-40.364,60.018
			c-9.167,14.32-18.452,28.531-27.289,43.168c-15.583,25.799-30.292,52.426-44.429,79.318c-4.774,9.086-9.57,18.24-14.238,27.502
			c-1.215,2.414-6.289,14.275-8.434,12.701c-1.568-1.152-1.99-8.746-2.113-11.297c-0.123-2.498-0.218-5.004-0.302-7.518
			c-0.724-22.223,0.003-44.84,1.339-67.543c0.582-9.828,1.274-19.666,2.012-29.494c1.778-23.777,4.127-47.744,7.058-71.818
			c3.345,0.219,6.609,0.289,9.444,0.236c16.023-0.303,24.457-2.893,24.832-5.053c0.175-1.01-14.764-0.938-22.483-1.561
			c-7.768-0.623-15.616-1.887-23.43-3.811c-10.408-2.557-20.777-6.275-30.856-11.201c-11.234-5.488-22.291-12.843-32.105-22.682
			c-0.702-0.706-1.438-1.522-2.188-2.431c-0.477-0.579-1.426-2.1-1.171-2.988c0.259-0.909,1.745-1.177,2.449-1.245
			c16.951-1.651,33.422-5.585,49.451-10.188c3.585-1.029,7.147-2.094,10.69-3.173c0.222-0.067,0.444-0.135,0.666-0.203
			c3.48-1.063,6.943-2.138,10.382-3.21c2.754-0.86,5.483-1.793,8.2-2.762c2.548-9.738,5.471-19.633,8.195-28.962
			c0.11-0.367,0.858-2.624,0.951-2.792c0.125-0.228,0.242-0.294,0.409-0.107c0.121,0.136,0.283,0.34,0.493,0.586
			c1.653,1.906,5.871,6.526,6.771,7.55c4.416,5.048,7.531,8.757,10.251,11.932c3.215-1.674,6.399-3.417,9.534-5.258
			c0.799-0.47,1.573-0.944,2.33-1.42c0.176-0.111,0.347-0.223,0.521-0.334c0.576-0.367,1.142-0.735,1.696-1.104
			c0.201-0.134,0.4-0.268,0.599-0.402c0.52-0.352,1.031-0.703,1.534-1.055c0.193-0.135,0.388-0.27,0.579-0.405
			c0.52-0.368,1.031-0.735,1.536-1.101c1.877-1.362,3.662-2.71,5.4-4.007c5.105-3.81,16.505-14.763,22.485-22.666
			c2.651-3.498,4.524-7.146,4.658-7.983c0.32-2.01-9.913,8.943-13.86,12.278c-12.768,10.787-23.992,18.707-36.806,25.417
			c-4.421-4.861-8.828-9.93-13.389-15.296c-0.861-1.018-5.466-5.89-7.055-6.215c-0.941-0.188-2.27,3.755-2.655,5
			c-2.875,9.251-6.396,19.834-9.52,30.188c-2.011,0.692-4.076,1.384-6.204,2.079c-16.778,5.483-33.875,10.269-51.548,12.991
			c0.336-4.958,0.708-9.917,1.132-14.876c0.084-0.983,0.171-1.966,0.258-2.949c0.574-6.491,1.203-12.979,1.877-19.456
			c3.254-31.229,7.782-62.72,13.274-94.447c0.494-2.846,1.893-7.88,5.085-12.656c3.104-4.646,8.716-7.299,10.453-8.065
			c5.7-2.526,11.429-4.958,17.236-7.143c22.615-8.52,46.592-12.859,70.41-13.734c11.609-0.423,23.229,0.361,34.792,1.802
			c11.624,1.452,23.213,3.139,34.561,6.691c4.651,1.458,9.251,3.253,13.771,5.36c1.296,0.603,4.624,2.916,5.022,5.27
			c0.479,2.851-0.823,6.063-1.539,7.472c-10.454,20.642-20.972,40.904-31.137,61.245c-3.353,1.133-6.962,2.205-9.136,2.73
			c-2.755,0.664-8.127,0.594-8.798,2.424c-0.164,0.453,3.834,2.024,5.878,2.181c13.249,1.013,25.7-5.8,37.803-11.857
			c2.856-1.428,15.202-7.625,20.903-10.708c5.056-2.733,11.052-6.205,16.014-9.166c0.714-0.426,1.566-0.901,2.518-1.401
			c0.512-0.27,2.139-1.003,2.531-0.559c0.467,0.53-0.373,2.344-0.71,3.15c-0.541,1.285-1.076,2.572-1.601,3.866
			c-2.463,6.082-4.912,13.271-7.363,19.577c-7.038-2.811-15.085-4.073-15.136,4.38c-0.012,1.81,0.291,6.331,2.764,11.717
			c0.512,1.108,1.112,2.409,1.769,3.683c-9.17,11.356-21.216,17.956-34.51,15.294c-6.745-1.352-15.074-5.053-21.493-8.636
			c-2.706-1.512-3.931-2.179-8.658-4.228c-1.131-0.492-1.809-0.626-2.514-0.917c-5.472-2.249,0.028,3.192,4.305,6.229
			c0.478,0.34,0.937,0.676,1.386,1.009c-4.802,10.119-9.47,20.309-13.953,30.626c-2.804,6.454-5.535,12.947-8.176,19.502
			c-1.696,4.207-13.57,36.095-10.783,38.179c0.531,0.393,3.444-6.256,7.494-14.696c4.064-8.478,8.008-17.303,9.152-19.952
			c0.959-2.222,3.054-6.731,5.185-11.29c14.4-0.506,28.579-0.179,40.921,1.538c2.867,0.398,5.718,0.863,8.56,1.399
			c1.602,0.3,9.827,2.345,8.932,6.401c-0.143,0.633-0.42,1.339-0.767,2.054c-1.051,2.179-6.139,8.675-7.515,10.42
			C255.954,198.358,251.213,204.699,246.626,210.987z"/>
		<path d="M189.751,71.124c-3.059,2.761-6.467,5.889-9.499,8.632c-7.233,6.55-14.584,12.556-21.633,17.824
			c-5.687,4.255-19.386,14.457-35.168,23.098c-0.749,0.41-1.505,0.815-2.267,1.218c-0.512,0.274-1.808,1.008-1.755,1.517
			c0.073,0.643,1.655,1.061,2.51,1.245c9.158,1.987,21.433,4.535,25.825,4.687c12.744,0.446,23.295,1.157,33.41-7.493
			c4.677-3.999,7.112-9.373,8.452-15.425c1.171-5.296,1.809-15.139,0.546-27.958c2.079-2.356,4.327-5.41,5.928-9.134
			c0.588-1.361,0.791-2.586,0.612-2.863C196.3,65.822,194.719,66.637,189.751,71.124z M176.317,115.487
			c-8.19,8.237-21.034,7.594-31.771,7.199c-3.394-0.127-7.452-0.416-11.782-0.857c12.15-7.465,23.156-15.258,27.979-18.834
			c7.13-5.294,14.013-10.294,20.807-16.247C182.548,98.173,181.346,110.426,176.317,115.487z"/>
		<path d="M119.665,76.163c-0.127-7.542-1.253-15.079-4.629-18.82c-5.807-6.439-12.635-2.878-17.301,1.161
			c-0.125,0.106-0.24,0.217-0.344,0.335c-15.686,14.62-23.147,38.461-26.7,62.614c-2.02,13.75-0.195,38.856,14.864,41.653
			c7.299,1.35,14.591-6.427,17.834-12.52c5.871-11.038,9.434-23.244,11.723-33.371C120.588,92.944,119.759,81.667,119.665,76.163z
			 M114.311,77.77c-0.513,12.004-2.235,18.379-4.186,27.893c-2.292,11.141-6.425,22.452-11.033,31.944
			c-2.791,5.745-6.444,9.282-10.317,10.076c-2.767,0.57-6.008-1.427-7.667-4.43c-0.965-1.747-1.732-3.494-2.132-5.131
			c-1.277-5.167-1.185-9.51-1.165-11.42c0.071-7.465,1.003-13.786,1.52-16.729c2.992-17.148,8.711-33.544,21.396-46.208
			c3.094-3.092,7.094-4.261,9.852-2.671C114.419,63.305,114.429,74.966,114.311,77.77z"/>
		<path d="M229.982,120.911c10.648,1.721,26.507-4.673,36.586-7.683c0.273-2.432-12.084,0.279-22.745,0.834
			c-8.518,0.442-16.439,1.546-25.155,0.184C215.146,113.696,220.399,119.36,229.982,120.911z"/>
	</g>
</g>
</svg>
