<svg width="50" height="50" viewBox="0 0 50 50" fill="none" xmlns="http://www.w3.org/2000/svg">
<path d="M43.9662 13.3308C43.8644 12.32 43.5361 11.4067 42.9023 10.6084C42.342 9.90193 41.6233 9.39648 40.9441 8.82788C40.6046 8.54644 39.7047 7.78256 39.5916 7.35179C39.4558 6.82913 39.6651 6.29499 40.1349 6.12268C40.8423 5.88145 42.0251 5.8872 42.7098 5.93314C43.2928 5.9791 43.8926 5.77233 43.9153 5.5311C43.9379 5.28987 43.5927 4.93377 43.1343 4.82465C42.7721 4.73849 42.2175 4.60639 41.8836 4.3824C41.2894 3.97461 40.6838 3.22795 39.8576 3.06139C38.6804 2.8259 37.8598 3.2739 37.475 4.30199C36.8638 5.77233 37.26 7.6562 38.5446 9.03464C39.1219 9.65496 39.7953 10.1891 40.4405 10.7462C40.9159 11.1597 41.3346 11.6135 41.7364 12.1189C42.8118 13.4801 41.6742 15.9785 41.4026 16.2658C40.4518 17.2651 39.6255 17.4489 37.9843 17.38C36.3714 17.3111 32.1892 15.117 29.9764 15.0481C24.4982 14.8758 20.6951 17.4432 19.4104 18.1094C17.4863 19.1088 14.7471 19.1719 14.6623 19.2007C13.4229 19.2983 10.8536 19.3959 9.58021 19.8439C7.78623 20.3494 6.81848 21.1822 6.162 23.0431C5.95827 23.8472 5.91866 24.5766 6.20728 25.0189C6.83546 25.9838 8.52759 26.7878 9.29726 27.2301C9.69345 27.4598 10.4744 27.1727 10.6272 27.0635C11.4874 26.472 12.2458 26.0067 13.2645 25.8574C13.4795 25.8229 14.9169 25.5645 15.6414 26.1044C16.1677 26.4949 16.6204 26.7304 17.2146 27.0061C18.3012 27.5058 20.6951 28.1376 20.7404 28.149C21.063 28.2352 21.4761 28.4018 21.4761 28.6947C21.4761 29.1082 17.6731 32.3361 17.4637 32.4165C16.5072 32.8128 15.9526 33.4503 15.7772 34.3693C15.7206 34.6679 15.5904 34.9781 15.4263 35.2251C14.8095 36.1326 12.076 40.0726 11.3516 41.1523C11.0064 41.6578 10.6498 41.9105 10.1575 41.9909C9.4501 42.1058 8.91809 42.1231 8.61815 42.6342C8.43138 42.9616 8.55023 43.5991 8.67474 44.0127C8.81622 44.4836 8.43138 45.0695 8.40309 45.1384C8.06353 45.8104 7.92205 46.4536 7.97298 47.1026C7.98996 47.3668 8.00694 47.9814 8.43705 47.9987C8.86715 48.0216 8.98034 47.7402 9.03128 47.6368C9.0935 47.5105 9.33123 46.9878 9.3991 46.8614C9.67642 46.3388 10.7347 45.213 10.8536 45.0809C11.2328 44.6559 16.8921 36.7471 16.8921 36.7471C17.2033 36.3335 17.5259 35.9086 18.0522 35.7018C18.7823 35.4146 19.269 34.823 19.4104 34.0419C19.4444 33.8696 21.7025 32.1121 22.6645 31.3712C23.0154 31.1013 25.1433 30.234 25.1773 30.2454C25.1773 30.2627 23.2305 33.2378 22.6249 34.8173C22.5287 35.07 22.3703 35.9315 22.5457 36.368C22.8174 37.04 23.4003 37.3329 24.0624 37.1319C24.2662 37.0687 24.4473 36.9654 24.6227 36.8677C24.7019 36.8217 24.7811 36.7816 24.8604 36.7414C24.9396 36.7012 25.0132 36.661 25.0924 36.6208C25.2735 36.5231 25.4489 36.4312 25.6244 36.3738C26.2752 36.1555 26.9317 35.9487 27.5882 35.742L28.9181 35.3227C29.8462 35.0298 30.7743 34.7369 31.7025 34.4497C31.9062 34.3865 32.1043 34.3118 32.3589 34.3176C32.5005 34.3176 32.6533 34.375 32.7042 34.5875C32.7042 34.5991 32.8118 35.2423 33.2022 35.5007C33.4003 35.6328 33.8248 35.7363 34.1417 35.7247C34.419 35.7133 34.7698 35.7937 34.9509 35.9545L35.183 36.1555C35.3527 36.2991 35.5621 36.3795 35.7036 36.4197C35.8508 36.4599 36.1224 36.4599 36.2809 36.2933C36.4506 36.1095 36.3884 35.8109 36.3657 35.719C36.3318 35.5926 36.2639 35.495 36.213 35.4088L36.0715 35.1849C35.9357 34.9666 35.8055 34.7483 35.664 34.5301C35.2735 33.927 34.8887 33.3297 34.4926 32.7324C34.0794 32.1121 33.4399 31.8651 32.6023 31.9972C32.2798 32.0489 25.2 34.2774 25.149 34.2889C25.5282 33.5824 27.7976 30.4005 28.4314 29.9985C28.9012 29.717 29.0992 29.4471 29.9538 29.2978C31.6233 29.0106 35.2452 28.1606 36.145 27.5C37.8938 26.2135 38.0352 23.29 38.007 22.7042C37.973 22.1184 38.1598 21.7163 38.6635 21.4464C38.9124 21.3143 41.6063 19.8038 42.9249 17.5753C43.7172 16.2715 44.1247 14.8758 43.9662 13.3308Z" fill="#8CC63F"/>
</svg>
