<svg fill="none" height="100" viewBox="0 0 48 48" width="100" xmlns="http://www.w3.org/2000/svg"><path clip-rule="evenodd" d="m18.5 6c-8.0081 0-14.5 6.4919-14.5 14.5 0 18 24 21.5 24 21.5v-7h1.5c8.0081 0 14.5-6.4919 14.5-14.5s-6.4919-14.5-14.5-14.5zm11.8565 6.7347c1.598 1.2063 2.6435 3.0461 2.6435 5.4114 0 2.8806-1.8262 4.6852-3.6347 5.6819-1.0718.5906-2.2414.9678-3.2987 1.1924-.011 1.0952-.9022 1.9796-1.9999 1.9796-1.1046 0-2-.8954-2-2v-1.7135c0-1.0567.822-1.9311 1.8766-1.9962.9542-.059 2.3774-.3517 3.4914-.9656 1.0804-.5954 1.5653-1.2896 1.5653-2.1786 0-1.0616-.417-1.7384-1.0534-2.2189-.7043-.5316-1.775-.8792-3.0284-.9226-1.2447-.0432-2.4846.222-3.4262.7047-.946.4848-1.4116 1.0827-1.553 1.642-.2709 1.0709-1.3585 1.7194-2.4294 1.4486-1.0708-.2708-1.7194-1.3585-1.4485-2.4293.5085-2.0108 1.9929-3.394 3.6063-4.221 1.6178-.8292 3.5466-1.2065 5.3894-1.1426 1.8341.0636 3.7697.5727 5.2997 1.7277zm-8.3565 17.2653c0-1.1045.8954-2 2-2s2 .8955 2 2c0 1.1046-.8954 2-2 2s-2-.8954-2-2z" fill="#8CC63F" fill-rule="evenodd"/></svg>
